<svg version="1.1" viewBox="0.0 0.0 600.0 371.0" fill="none" stroke="none" stroke-linecap="square" stroke-miterlimit="10" width="600" height="371" xmlns:xlink="http://www.w3.org/1999/xlink" xmlns="http://www.w3.org/2000/svg"><path fill="#ffffff" d="M0 0L600.0 0L600.0 371.0L0 371.0L0 0Z" fill-rule="nonzero"/><path stroke="#cccccc" stroke-width="1.0" stroke-linecap="butt" d="M146.5 61.5L146.5 300.5" fill-rule="nonzero"/><path stroke="#cccccc" stroke-width="1.0" stroke-linecap="butt" d="M225.5 61.5L225.5 300.5" fill-rule="nonzero"/><path stroke="#cccccc" stroke-width="1.0" stroke-linecap="butt" d="M303.5 61.5L303.5 300.5" fill-rule="nonzero"/><path stroke="#cccccc" stroke-width="1.0" stroke-linecap="butt" d="M382.5 61.5L382.5 300.5" fill-rule="nonzero"/><path stroke="#cccccc" stroke-width="1.0" stroke-linecap="butt" d="M461.5 61.5L461.5 300.5" fill-rule="nonzero"/><path stroke="#cccccc" stroke-width="1.0" stroke-linecap="butt" d="M540.5 61.5L540.5 300.5" fill-rule="nonzero"/><path stroke="#333333" stroke-width="1.0" stroke-linecap="butt" d="M73.5 300.5L581.5 300.5" fill-rule="nonzero"/><path stroke="#cccccc" stroke-width="1.0" stroke-linecap="butt" d="M73.5 220.5L581.5 220.5" fill-rule="nonzero"/><path stroke="#cccccc" stroke-width="1.0" stroke-linecap="butt" d="M73.5 141.5L581.5 141.5" fill-rule="nonzero"/><path stroke="#cccccc" stroke-width="1.0" stroke-linecap="butt" d="M73.5 61.5L581.5 61.5" fill-rule="nonzero"/><clipPath id="id_0"><path d="M73.55 61.916668L581.45 61.916668L581.45 300.45L73.55 300.45L73.55 61.916668Z" clip-rule="nonzero"/></clipPath><path stroke="#4285f4" stroke-width="2.0" stroke-linecap="butt" clip-path="url(#id_0)" d="M83.17114 82.339096L98.934296 84.63299L114.69744 82.919525L130.4606 79.548256L146.22375 77.82286L161.98691 82.53787L177.75006 82.211876L193.5132 80.53817L209.27635 79.79474L225.0395 76.40359L240.80266 85.59905L256.56583 93.82845L272.32898 100.14163L288.09213 99.44591L303.8553 100.76579L319.61844 97.032745L335.38156 103.47315L351.1447 111.19368L366.90787 131.26228L382.67102 137.73846L398.43417 134.0571L414.19733 132.12895L429.96048 130.70174L445.72363 126.197426L461.4868 123.279366L477.24994 119.49464L493.0131 116.82307L508.77625 117.630104L524.5394 115.034065L540.30255 132.61L556.06573 117.62613L571.82886 114.35425" fill-rule="nonzero"/><path fill="#4285f4" clip-path="url(#id_0)" d="M83.17114 76.339096L84.51823 80.48499L88.87748 80.48499L85.35077 83.0473L86.69785 87.1932L83.17114 84.63089L79.64443 87.1932L80.991516 83.0473L77.4648 80.48499L81.82406 80.48499Z" fill-rule="nonzero"/><path fill="#4285f4" clip-path="url(#id_0)" d="M98.934296 78.63299L100.28138 82.77889L104.64063 82.77889L101.11392 85.341194L102.461006 89.48709L98.934296 86.92479L95.40758 89.48709L96.75466 85.341194L93.22795 82.77889L97.58721 82.77889Z" fill-rule="nonzero"/><path fill="#4285f4" clip-path="url(#id_0)" d="M114.69744 76.919525L116.044525 81.06542L120.403786 81.06542L116.877075 83.62773L118.22416 87.77363L114.69744 85.21132L111.17073 87.77363L112.517815 83.62773L108.991104 81.06542L113.350365 81.06542Z" fill-rule="nonzero"/><path fill="#4285f4" clip-path="url(#id_0)" d="M130.4606 73.548256L131.80768 77.69415L136.16693 77.69415L132.64023 80.25646L133.9873 84.40236L130.4606 81.84005L126.93388 84.40236L128.28098 80.25646L124.75426 77.69415L129.11351 77.69415Z" fill-rule="nonzero"/><path fill="#4285f4" clip-path="url(#id_0)" d="M146.22375 71.82286L147.57083 75.968765L151.93008 75.968765L148.40338 78.53107L149.75046 82.67696L146.22375 80.11466L142.69704 82.67696L144.04413 78.53107L140.51741 75.968765L144.87666 75.968765Z" fill-rule="nonzero"/><path fill="#4285f4" clip-path="url(#id_0)" d="M161.98691 76.53787L163.33398 80.68377L167.69324 80.68377L164.16653 83.24608L165.51361 87.391975L161.98691 84.829666L158.46019 87.391975L159.80728 83.24608L156.28056 80.68377L160.63982 80.68377Z" fill-rule="nonzero"/><path fill="#4285f4" clip-path="url(#id_0)" d="M177.75006 76.211876L179.09714 80.35777L183.45639 80.35777L179.92969 82.92008L181.27676 87.06598L177.75006 84.50368L174.22334 87.06598L175.57042 82.92008L172.04372 80.35777L176.40297 80.35777Z" fill-rule="nonzero"/><path fill="#4285f4" clip-path="url(#id_0)" d="M193.5132 74.53817L194.86029 78.68407L199.21954 78.68407L195.69284 81.246376L197.03992 85.39227L193.5132 82.82996L189.9865 85.39227L191.33357 81.246376L187.80687 78.68407L192.16612 78.68407Z" fill-rule="nonzero"/><path fill="#4285f4" clip-path="url(#id_0)" d="M209.27635 73.79474L210.62344 77.940636L214.9827 77.940636L211.45598 80.502945L212.80307 84.64884L209.27635 82.08653L205.74965 84.64884L207.09673 80.502945L203.57002 77.940636L207.92928 77.940636Z" fill-rule="nonzero"/><path fill="#4285f4" clip-path="url(#id_0)" d="M225.0395 70.40359L226.3866 74.54949L230.74585 74.54949L227.21913 77.11179L228.56622 81.25769L225.0395 78.69539L221.5128 81.25769L222.85988 77.11179L219.33318 74.54949L223.69243 74.54949Z" fill-rule="nonzero"/><path fill="#4285f4" clip-path="url(#id_0)" d="M240.80266 79.59905L242.14975 83.74495L246.509 83.74495L242.98228 86.30726L244.32938 90.453156L240.80266 87.89085L237.27596 90.453156L238.62303 86.30726L235.09633 83.74495L239.45558 83.74495Z" fill-rule="nonzero"/><path fill="#4285f4" clip-path="url(#id_0)" d="M256.56583 87.82845L257.9129 91.97435L262.27216 91.97435L258.74545 94.53665L260.09253 98.682556L256.56583 96.12025L253.03911 98.682556L254.38618 94.53665L250.85948 91.97435L255.21873 91.97435Z" fill-rule="nonzero"/><path fill="#4285f4" clip-path="url(#id_0)" d="M272.32898 94.14163L273.67606 98.28753L278.0353 98.28753L274.5086 100.84984L275.85568 104.995735L272.32898 102.433426L268.80225 104.995735L270.14935 100.84984L266.62262 98.28753L270.98187 98.28753Z" fill-rule="nonzero"/><path fill="#4285f4" clip-path="url(#id_0)" d="M288.09213 93.44591L289.4392 97.59181L293.79846 97.59181L290.27176 100.15411L291.61884 104.30001L288.09213 101.73771L284.5654 104.30001L285.9125 100.15411L282.38577 97.59181L286.74503 97.59181Z" fill-rule="nonzero"/><path fill="#4285f4" clip-path="url(#id_0)" d="M303.8553 94.76579L305.20236 98.9117L309.5616 98.9117L306.0349 101.474L307.382 105.619896L303.8553 103.057594L300.32855 105.619896L301.67566 101.474L298.14893 98.9117L302.50818 98.9117Z" fill-rule="nonzero"/><path fill="#4285f4" clip-path="url(#id_0)" d="M319.61844 91.032745L320.9655 95.17865L325.32477 95.17865L321.79807 97.74095L323.14514 101.88685L319.61844 99.32455L316.0917 101.88685L317.43878 97.74095L313.91208 95.17865L318.27133 95.17865Z" fill-rule="nonzero"/><path fill="#4285f4" clip-path="url(#id_0)" d="M335.38156 97.47315L336.72867 101.61905L341.08792 101.61905L337.56122 104.18135L338.9083 108.32725L335.38156 105.764946L331.85486 108.32725L333.20193 104.18135L329.67523 101.61905L334.0345 101.61905Z" fill-rule="nonzero"/><path fill="#4285f4" clip-path="url(#id_0)" d="M351.1447 105.19368L352.49182 109.33958L356.85107 109.33958L353.32434 111.90188L354.67145 116.04778L351.1447 113.48547L347.618 116.04778L348.9651 111.90188L345.4384 109.33958L349.79764 109.33958Z" fill-rule="nonzero"/><path fill="#4285f4" clip-path="url(#id_0)" d="M366.90787 125.26228L368.25497 129.40819L372.61423 129.40819L369.0875 131.97049L370.4346 136.11638L366.90787 133.55408L363.38116 136.11638L364.72824 131.97049L361.20154 129.40819L365.5608 129.40819Z" fill-rule="nonzero"/><path fill="#4285f4" clip-path="url(#id_0)" d="M382.67102 131.73846L384.01813 135.88435L388.37738 135.88435L384.85065 138.44667L386.19775 142.59256L382.67102 140.03026L379.14432 142.59256L380.4914 138.44667L376.9647 135.88435L381.32394 135.88435Z" fill-rule="nonzero"/><path fill="#4285f4" clip-path="url(#id_0)" d="M398.43417 128.0571L399.78128 132.203L404.14053 132.203L400.6138 134.7653L401.9609 138.9112L398.43417 136.34889L394.90747 138.9112L396.25455 134.7653L392.72784 132.203L397.0871 132.203Z" fill-rule="nonzero"/><path fill="#4285f4" clip-path="url(#id_0)" d="M414.19733 126.12895L415.54443 130.27486L419.9037 130.27486L416.37695 132.83716L417.72406 136.98306L414.19733 134.42075L410.67062 136.98306L412.0177 132.83716L408.491 130.27486L412.85025 130.27486Z" fill-rule="nonzero"/><path fill="#4285f4" clip-path="url(#id_0)" d="M429.96048 124.70173L431.3076 128.84763L435.66684 128.84763L432.1401 131.40993L433.4872 135.55583L429.96048 132.99353L426.43378 135.55583L427.78085 131.40993L424.25415 128.84763L428.6134 128.84763Z" fill-rule="nonzero"/><path fill="#4285f4" clip-path="url(#id_0)" d="M445.72363 120.197426L447.07074 124.34332L451.43 124.34332L447.90326 126.90563L449.25037 131.05153L445.72363 128.48923L442.19693 131.05153L443.544 126.90563L440.0173 124.34332L444.37656 124.34332Z" fill-rule="nonzero"/><path fill="#4285f4" clip-path="url(#id_0)" d="M461.4868 117.279366L462.8339 121.42526L467.19315 121.42526L463.6664 123.98757L465.01352 128.13347L461.4868 125.57116L457.96008 128.13347L459.30716 123.98757L455.78046 121.42526L460.1397 121.42526Z" fill-rule="nonzero"/><path fill="#4285f4" clip-path="url(#id_0)" d="M477.24994 113.49464L478.59702 117.64053L482.9563 117.64053L479.42957 120.20284L480.77667 124.34874L477.24994 121.78643L473.72324 124.34874L475.0703 120.20284L471.5436 117.64053L475.90286 117.64053Z" fill-rule="nonzero"/><path fill="#4285f4" clip-path="url(#id_0)" d="M493.0131 110.82307L494.36017 114.96896L498.71945 114.96896L495.19272 117.531265L496.5398 121.67717L493.0131 119.11486L489.4864 121.67717L490.83347 117.531265L487.30676 114.96896L491.66602 114.96896Z" fill-rule="nonzero"/><path fill="#4285f4" clip-path="url(#id_0)" d="M508.77625 111.630104L510.12332 115.776L514.4826 115.776L510.95587 118.3383L512.303 122.48421L508.77625 119.9219L505.24954 122.48421L506.59662 118.3383L503.06992 115.776L507.42917 115.776Z" fill-rule="nonzero"/><path fill="#4285f4" clip-path="url(#id_0)" d="M524.5394 109.034065L525.8865 113.17996L530.2457 113.17996L526.71906 115.74227L528.0661 119.88817L524.5394 117.32586L521.0127 119.88817L522.3598 115.74227L518.83307 113.17996L523.1923 113.17996Z" fill-rule="nonzero"/><path fill="#4285f4" clip-path="url(#id_0)" d="M540.30255 126.60999L541.64966 130.75589L546.0089 130.75589L542.4822 133.3182L543.8293 137.4641L540.30255 134.9018L536.7758 137.4641L538.1229 133.3182L534.5962 130.75589L538.95544 130.75589Z" fill-rule="nonzero"/><path fill="#4285f4" clip-path="url(#id_0)" d="M556.06573 111.62613L557.4128 115.772026L561.77203 115.772026L558.24536 118.33433L559.5924 122.48023L556.06573 119.91792L552.539 122.48023L553.8861 118.33433L550.3594 115.772026L554.7186 115.772026Z" fill-rule="nonzero"/><path fill="#4285f4" clip-path="url(#id_0)" d="M571.82886 108.35425L573.17596 112.500145L577.5352 112.500145L574.0085 115.06245L575.3556 119.20834L571.82886 116.64604L568.3021 119.20834L569.64923 115.06245L566.1225 112.500145L570.48175 112.500145Z" fill-rule="nonzero"/><path fill="#000000" d="M318.34375 349.45L318.34375 345.8094L315.03125 340.85626L316.42188 340.85626L318.10938 343.45Q318.57812 344.16876 318.98438 344.90314Q319.375 344.23126 319.92188 343.3875L321.59375 340.85626L322.90625 340.85626L319.48438 345.8094L319.48438 349.45L318.34375 349.45ZM327.04688 347.45L328.14062 347.575Q327.89062 348.52814 327.1875 349.0594Q326.48438 349.59064 325.40625 349.59064Q324.04688 349.59064 323.23438 348.7469Q322.4375 347.90314 322.4375 346.3875Q322.4375 344.825 323.25 343.96564Q324.0625 343.09064 325.34375 343.09064Q326.59375 343.09064 327.375 343.9344Q328.17188 344.77814 328.17188 346.325Q328.17188 346.41876 328.17188 346.60626L323.53125 346.60626Q323.59375 347.6375 324.10938 348.1844Q324.625 348.71564 325.40625 348.71564Q325.98438 348.71564 326.39062 348.41876Q326.8125 348.10626 327.04688 347.45ZM323.59375 345.7469L327.0625 345.7469Q327.0 344.95 326.67188 344.5594Q326.15625 343.95 325.35938 343.95Q324.625 343.95 324.125 344.4344Q323.64062 344.91876 323.59375 345.7469ZM333.85938 348.6844Q333.26562 349.1844 332.71875 349.3875Q332.1875 349.59064 331.5625 349.59064Q330.53125 349.59064 329.98438 349.09064Q329.4375 348.59064 329.4375 347.8094Q329.4375 347.35626 329.64062 346.98126Q329.84375 346.59064 330.1875 346.3719Q330.53125 346.1375 330.95312 346.02814Q331.25 345.9344 331.89062 345.85626Q333.15625 345.71564 333.76562 345.4969Q333.76562 345.27814 333.76562 345.23126Q333.76562 344.575 333.46875 344.3094Q333.0625 343.96564 332.26562 343.96564Q331.53125 343.96564 331.17188 344.23126Q330.8125 344.48126 330.64062 345.1375L329.60938 344.9969Q329.75 344.34064 330.07812 343.9344Q330.40625 343.52814 331.01562 343.3094Q331.625 343.09064 332.42188 343.09064Q333.21875 343.09064 333.71875 343.27814Q334.21875 343.46564 334.45312 343.7469Q334.6875 344.02814 334.78125 344.46564Q334.82812 344.73126 334.82812 345.4344L334.82812 346.84064Q334.82812 348.3094 334.89062 348.7Q334.96875 349.09064 335.17188 349.45L334.0625 349.45Q333.90625 349.1219 333.85938 348.6844ZM333.76562 346.325Q333.1875 346.5594 332.04688 346.73126Q331.39062 346.825 331.125 346.95Q330.85938 347.0594 330.70312 347.27814Q330.5625 347.4969 330.5625 347.77814Q330.5625 348.2 330.875 348.48126Q331.20312 348.7625 331.8125 348.7625Q332.42188 348.7625 332.89062 348.4969Q333.375 348.23126 333.59375 347.7625Q333.76562 347.40314 333.76562 346.71564L333.76562 346.325ZM336.78125 349.45L336.78125 343.23126L337.73438 343.23126L337.73438 344.16876Q338.09375 343.5125 338.39062 343.3094Q338.70312 343.09064 339.07812 343.09064Q339.60938 343.09064 340.15625 343.41876L339.79688 344.40314Q339.40625 344.16876 339.03125 344.16876Q338.67188 344.16876 338.39062 344.3875Q338.125 344.59064 338.01562 344.96564Q337.82812 345.52814 337.82812 346.1844L337.82812 349.45L336.78125 349.45Z" fill-rule="nonzero"/><path fill="#000000" d="M28.550013 313.38644L21.393763 313.38644L21.393763 308.21457L22.237513 308.21457L22.237513 312.44894L24.425013 312.44894L24.425013 308.4802L25.268763 308.4802L25.268763 312.44894L27.706263 312.44894L27.706263 308.0427L28.550013 308.0427L28.550013 313.38644ZM28.550013 306.5271L23.362513 306.5271L23.362513 305.73022L24.096888 305.73022Q23.706263 305.49585 23.487513 305.0896Q23.253138 304.68335 23.253138 304.16772Q23.253138 303.5896 23.487513 303.23022Q23.721888 302.85522 24.159388 302.69897Q23.253138 302.0896 23.253138 301.10522Q23.253138 300.32397 23.675013 299.91772Q24.096888 299.49585 24.987513 299.49585L28.550013 299.49585L28.550013 300.37085L25.284388 300.37085Q24.753138 300.37085 24.518763 300.4646Q24.284388 300.54272 24.143763 300.7771Q24.003138 300.99585 24.003138 301.29272Q24.003138 301.8396 24.378138 302.19897Q24.737513 302.55835 25.534388 302.55835L28.550013 302.55835L28.550013 303.44897L25.175013 303.44897Q24.596888 303.44897 24.300013 303.66772Q24.003138 303.87085 24.003138 304.35522Q24.003138 304.73022 24.206263 305.04272Q24.393763 305.35522 24.768763 305.51147Q25.143763 305.6521 25.862513 305.6521L28.550013 305.6521L28.550013 306.5271ZM30.534388 297.5271L23.362513 297.5271L23.362513 296.73022L24.034388 296.73022Q23.643763 296.43335 23.456263 296.0896Q23.253138 295.73022 23.253138 295.2146Q23.253138 294.55835 23.596888 294.05835Q23.925013 293.54272 24.550013 293.29272Q25.175013 293.0271 25.925013 293.0271Q26.706263 293.0271 27.346888 293.30835Q27.987513 293.5896 28.331263 294.13647Q28.675013 294.68335 28.675013 295.2771Q28.675013 295.7146 28.487513 296.07397Q28.300013 296.41772 28.018763 296.6521L30.534388 296.6521L30.534388 297.5271ZM25.987513 296.73022Q26.987513 296.73022 27.471888 296.32397Q27.940638 295.91772 27.940638 295.3396Q27.940638 294.76147 27.456263 294.3396Q26.956263 293.91772 25.909388 293.91772Q24.925013 293.91772 24.440638 294.32397Q23.940638 294.73022 23.940638 295.30835Q23.940638 295.87085 24.471888 296.30835Q24.987513 296.73022 25.987513 296.73022ZM28.550013 291.54272L21.393763 291.54272L21.393763 290.66772L28.550013 290.66772L28.550013 291.54272ZM25.956263 288.85522Q24.518763 288.85522 23.815638 288.04272Q23.253138 287.38647 23.253138 286.41772Q23.253138 285.35522 23.956263 284.68335Q24.643763 283.99585 25.878138 283.99585Q26.878138 283.99585 27.456263 284.29272Q28.034388 284.5896 28.362513 285.16772Q28.675013 285.74585 28.675013 286.41772Q28.675013 287.51147 27.971888 288.18335Q27.268763 288.85522 25.956263 288.85522ZM25.956263 287.94897Q26.956263 287.94897 27.456263 287.51147Q27.940638 287.07397 27.940638 286.41772Q27.940638 285.76147 27.440638 285.3396Q26.940638 284.9021 25.925013 284.9021Q24.971888 284.9021 24.471888 285.3396Q23.971888 285.7771 23.971888 286.41772Q23.971888 287.07397 24.471888 287.51147Q24.956263 287.94897 25.956263 287.94897ZM30.550013 282.55835L29.721888 282.66772Q29.800013 282.37085 29.800013 282.1521Q29.800013 281.87085 29.706263 281.69897Q29.612513 281.51147 29.425013 281.4021Q29.300013 281.32397 28.768763 281.13647Q28.706263 281.10522 28.565638 281.05835L23.362513 283.0271L23.362513 282.07397L26.362513 280.99585Q26.940638 280.79272 27.565638 280.62085Q26.956263 280.4646 26.393763 280.26147L23.362513 279.1521L23.362513 278.2771L28.643763 280.24585Q29.487513 280.55835 29.815638 280.73022Q30.253138 280.9646 30.456263 281.2771Q30.659388 281.57397 30.659388 281.99585Q30.659388 282.24585 30.550013 282.55835ZM28.550013 277.5271L23.362513 277.5271L23.362513 276.73022L24.096888 276.73022Q23.706263 276.49585 23.487513 276.0896Q23.253138 275.68335 23.253138 275.16772Q23.253138 274.5896 23.487513 274.23022Q23.721888 273.85522 24.159388 273.69897Q23.253138 273.0896 23.253138 272.10522Q23.253138 271.32397 23.675013 270.91772Q24.096888 270.49585 24.987513 270.49585L28.550013 270.49585L28.550013 271.37085L25.284388 271.37085Q24.753138 271.37085 24.518763 271.4646Q24.284388 271.54272 24.143763 271.7771Q24.003138 271.99585 24.003138 272.29272Q24.003138 272.8396 24.378138 273.19897Q24.737513 273.55835 25.534388 273.55835L28.550013 273.55835L28.550013 274.44897L25.175013 274.44897Q24.596888 274.44897 24.300013 274.66772Q24.003138 274.87085 24.003138 275.35522Q24.003138 275.73022 24.206263 276.04272Q24.393763 276.35522 24.768763 276.51147Q25.143763 276.6521 25.862513 276.6521L28.550013 276.6521L28.550013 277.5271ZM26.878138 264.98022L26.987513 264.05835Q27.784388 264.2771 28.237513 264.87085Q28.675013 265.44897 28.675013 266.3396Q28.675013 267.48022 27.971888 268.1521Q27.268763 268.82397 26.003138 268.82397Q24.690638 268.82397 23.971888 268.1521Q23.253138 267.4646 23.253138 266.4021Q23.253138 265.35522 23.956263 264.69897Q24.659388 264.04272 25.940638 264.04272Q26.018763 264.04272 26.175013 264.04272L26.175013 267.9021Q27.034388 267.85522 27.487513 267.43335Q27.940638 266.99585 27.940638 266.3396Q27.940638 265.85522 27.690638 265.51147Q27.440638 265.16772 26.878138 264.98022ZM25.456263 267.85522L25.456263 264.9646Q24.800013 265.0271 24.471888 265.29272Q23.971888 265.7146 23.971888 266.38647Q23.971888 266.99585 24.378138 267.4021Q24.784388 267.80835 25.456263 267.85522ZM28.550013 262.5271L23.362513 262.5271L23.362513 261.73022L24.096888 261.73022Q23.253138 261.16772 23.253138 260.0896Q23.253138 259.62085 23.425013 259.23022Q23.581263 258.82397 23.862513 258.63647Q24.128138 258.43335 24.503138 258.35522Q24.753138 258.30835 25.362513 258.30835L28.550013 258.30835L28.550013 259.18335L25.393763 259.18335Q24.862513 259.18335 24.596888 259.29272Q24.331263 259.38647 24.175013 259.6521Q24.003138 259.91772 24.003138 260.26147Q24.003138 260.82397 24.362513 261.24585Q24.721888 261.6521 25.721888 261.6521L28.550013 261.6521L28.550013 262.5271ZM27.768763 254.60521L28.534388 254.48021Q28.612513 254.85521 28.612513 255.13646Q28.612513 255.62083 28.471888 255.88646Q28.315638 256.1521 28.065638 256.26147Q27.815638 256.35522 27.034388 256.35522L24.050013 256.35522L24.050013 257.01147L23.362513 257.01147L23.362513 256.35522L22.081263 256.35522L21.550013 255.49583L23.362513 255.49583L23.362513 254.60521L24.050013 254.60521L24.050013 255.49583L27.081263 255.49583Q27.456263 255.49583 27.565638 255.44896Q27.675013 255.40208 27.737513 255.29271Q27.800013 255.18333 27.800013 254.99583Q27.800013 254.83958 27.768763 254.60521ZM27.768763 248.60521L28.534388 248.48021Q28.612513 248.85521 28.612513 249.13646Q28.612513 249.62083 28.471888 249.88646Q28.315638 250.15208 28.065638 250.26146Q27.815638 250.35521 27.034388 250.35521L24.050013 250.35521L24.050013 251.01146L23.362513 251.01146L23.362513 250.35521L22.081263 250.35521L21.550013 249.49583L23.362513 249.49583L23.362513 248.60521L24.050013 248.60521L24.050013 249.49583L27.081263 249.49583Q27.456263 249.49583 27.565638 249.44896Q27.675013 249.40208 27.737513 249.29271Q27.800013 249.18333 27.800013 248.99583Q27.800013 248.83958 27.768763 248.60521ZM25.956263 247.85521Q24.518763 247.85521 23.815638 247.04271Q23.253138 246.38646 23.253138 245.41771Q23.253138 244.35521 23.956263 243.68333Q24.643763 242.99583 25.878138 242.99583Q26.878138 242.99583 27.456263 243.29271Q28.034388 243.58958 28.362513 244.16771Q28.675013 244.74583 28.675013 245.41771Q28.675013 246.51146 27.971888 247.18333Q27.268763 247.85521 25.956263 247.85521ZM25.956263 246.94896Q26.956263 246.94896 27.456263 246.51146Q27.940638 246.07396 27.940638 245.41771Q27.940638 244.76146 27.440638 244.33958Q26.940638 243.90208 25.925013 243.90208Q24.971888 243.90208 24.471888 244.33958Q23.971888 244.77708 23.971888 245.41771Q23.971888 246.07396 24.471888 246.51146Q24.956263 246.94896 25.956263 246.94896ZM30.534388 238.52708L23.362513 238.52708L23.362513 237.73021L24.034388 237.73021Q23.643763 237.43333 23.456263 237.08958Q23.253138 236.73021 23.253138 236.21458Q23.253138 235.55833 23.596888 235.05833Q23.925013 234.54271 24.550013 234.29271Q25.175013 234.02708 25.925013 234.02708Q26.706263 234.02708 27.346888 234.30833Q27.987513 234.58958 28.331263 235.13646Q28.675013 235.68333 28.675013 236.27708Q28.675013 236.71458 28.487513 237.07396Q28.300013 237.41771 28.018763 237.65208L30.534388 237.65208L30.534388 238.52708ZM25.987513 237.73021Q26.987513 237.73021 27.471888 237.32396Q27.940638 236.91771 27.940638 236.33958Q27.940638 235.76146 27.456263 235.33958Q26.956263 234.91771 25.909388 234.91771Q24.925013 234.91771 24.440638 235.32396Q23.940638 235.73021 23.940638 236.30833Q23.940638 236.87083 24.471888 237.30833Q24.987513 237.73021 25.987513 237.73021ZM25.956263 232.85521Q24.518763 232.85521 23.815638 232.04271Q23.253138 231.38646 23.253138 230.41771Q23.253138 229.35521 23.956263 228.68333Q24.643763 227.99583 25.878138 227.99583Q26.878138 227.99583 27.456263 228.29271Q28.034388 228.58958 28.362513 229.16771Q28.675013 229.74583 28.675013 230.41771Q28.675013 231.51146 27.971888 232.18333Q27.268763 232.85521 25.956263 232.85521ZM25.956263 231.94896Q26.956263 231.94896 27.456263 231.51146Q27.940638 231.07396 27.940638 230.41771Q27.940638 229.76146 27.440638 229.33958Q26.940638 228.90208 25.925013 228.90208Q24.971888 228.90208 24.471888 229.33958Q23.971888 229.77708 23.971888 230.41771Q23.971888 231.07396 24.471888 231.51146Q24.956263 231.94896 25.956263 231.94896ZM30.534388 226.52708L23.362513 226.52708L23.362513 225.73021L24.034388 225.73021Q23.643763 225.43333 23.456263 225.08958Q23.253138 224.73021 23.253138 224.21458Q23.253138 223.55833 23.596888 223.05833Q23.925013 222.54271 24.550013 222.29271Q25.175013 222.02708 25.925013 222.02708Q26.706263 222.02708 27.346888 222.30833Q27.987513 222.58958 28.331263 223.13646Q28.675013 223.68333 28.675013 224.27708Q28.675013 224.71458 28.487513 225.07396Q28.300013 225.41771 28.018763 225.65208L30.534388 225.65208L30.534388 226.52708ZM25.987513 225.73021Q26.987513 225.73021 27.471888 225.32396Q27.940638 224.91771 27.940638 224.33958Q27.940638 223.76146 27.456263 223.33958Q26.956263 222.91771 25.909388 222.91771Q24.925013 222.91771 24.440638 223.32396Q23.940638 223.73021 23.940638 224.30833Q23.940638 224.87083 24.471888 225.30833Q24.987513 225.73021 25.987513 225.73021ZM28.550013 217.12083L27.784388 217.12083Q28.675013 217.73021 28.675013 218.77708Q28.675013 219.23021 28.503138 219.63646Q28.315638 220.02708 28.050013 220.23021Q27.784388 220.41771 27.393763 220.49583Q27.143763 220.54271 26.581263 220.54271L23.362513 220.54271L23.362513 219.66771L26.237513 219.66771Q26.925013 219.66771 27.175013 219.60521Q27.518763 219.52708 27.721888 219.26146Q27.909388 218.99583 27.909388 218.58958Q27.909388 218.19896 27.706263 217.85521Q27.503138 217.51146 27.159388 217.37083Q26.800013 217.21458 26.143763 217.21458L23.362513 217.21458L23.362513 216.33958L28.550013 216.33958L28.550013 217.12083ZM28.550013 214.54271L21.393763 214.54271L21.393763 213.66771L28.550013 213.66771L28.550013 214.54271ZM27.909388 208.13646Q28.331263 208.62083 28.503138 209.07396Q28.675013 209.52708 28.675013 210.04271Q28.675013 210.90208 28.253138 211.37083Q27.831263 211.82396 27.175013 211.82396Q26.800013 211.82396 26.487513 211.65208Q26.175013 211.48021 25.987513 211.19896Q25.784388 210.91771 25.690638 210.55833Q25.628138 210.30833 25.565638 209.77708Q25.440638 208.71458 25.253138 208.21458Q25.081263 208.21458 25.034388 208.21458Q24.487513 208.21458 24.268763 208.46458Q23.971888 208.79271 23.971888 209.46458Q23.971888 210.07396 24.190638 210.37083Q24.409388 210.66771 24.956263 210.80833L24.846888 211.66771Q24.284388 211.55833 23.956263 211.29271Q23.612513 211.01146 23.440638 210.51146Q23.253138 209.99583 23.253138 209.32396Q23.253138 208.66771 23.409388 208.26146Q23.565638 207.83958 23.800013 207.65208Q24.034388 207.44896 24.393763 207.37083Q24.612513 207.32396 25.206263 207.32396L26.378138 207.32396Q27.596888 207.32396 27.925013 207.27708Q28.253138 207.21458 28.550013 207.04271L28.550013 207.96458Q28.268763 208.10521 27.909388 208.13646ZM25.940638 208.21458Q26.143763 208.69896 26.284388 209.65208Q26.362513 210.18333 26.456263 210.41771Q26.550013 210.63646 26.737513 210.76146Q26.925013 210.88646 27.159388 210.88646Q27.503138 210.88646 27.737513 210.62083Q27.971888 210.35521 27.971888 209.83958Q27.971888 209.32396 27.753138 208.93333Q27.534388 208.54271 27.143763 208.35521Q26.846888 208.21458 26.268763 208.21458L25.940638 208.21458ZM27.768763 203.60521L28.534388 203.48021Q28.612513 203.85521 28.612513 204.13646Q28.612513 204.62083 28.471888 204.88646Q28.315638 205.15208 28.065638 205.26146Q27.815638 205.35521 27.034388 205.35521L24.050013 205.35521L24.050013 206.01146L23.362513 206.01146L23.362513 205.35521L22.081263 205.35521L21.550013 204.49583L23.362513 204.49583L23.362513 203.60521L24.050013 203.60521L24.050013 204.49583L27.081263 204.49583Q27.456263 204.49583 27.565638 204.44896Q27.675013 204.40208 27.737513 204.29271Q27.800013 204.18333 27.800013 203.99583Q27.800013 203.83958 27.768763 203.60521ZM22.409388 202.51146L21.393763 202.51146L21.393763 201.63646L22.409388 201.63646L22.409388 202.51146ZM28.550013 202.51146L23.362513 202.51146L23.362513 201.63646L28.550013 201.63646L28.550013 202.51146ZM25.956263 199.85521Q24.518763 199.85521 23.815638 199.04271Q23.253138 198.38646 23.253138 197.41771Q23.253138 196.35521 23.956263 195.68333Q24.643763 194.99583 25.878138 194.99583Q26.878138 194.99583 27.456263 195.29271Q28.034388 195.58958 28.362513 196.16771Q28.675013 196.74583 28.675013 197.41771Q28.675013 198.51146 27.971888 199.18333Q27.268763 199.85521 25.956263 199.85521ZM25.956263 198.94896Q26.956263 198.94896 27.456263 198.51146Q27.940638 198.07396 27.940638 197.41771Q27.940638 196.76146 27.440638 196.33958Q26.940638 195.90208 25.925013 195.90208Q24.971888 195.90208 24.471888 196.33958Q23.971888 196.77708 23.971888 197.41771Q23.971888 198.07396 24.471888 198.51146Q24.956263 198.94896 25.956263 198.94896ZM28.550013 193.52708L23.362513 193.52708L23.362513 192.73021L24.096888 192.73021Q23.253138 192.16771 23.253138 191.08958Q23.253138 190.62083 23.425013 190.23021Q23.581263 189.82396 23.862513 189.63646Q24.128138 189.43333 24.503138 189.35521Q24.753138 189.30833 25.362513 189.30833L28.550013 189.30833L28.550013 190.18333L25.393763 190.18333Q24.862513 190.18333 24.596888 190.29271Q24.331263 190.38646 24.175013 190.65208Q24.003138 190.91771 24.003138 191.26146Q24.003138 191.82396 24.362513 192.24583Q24.721888 192.65208 25.721888 192.65208L28.550013 192.65208L28.550013 193.52708ZM28.550013 184.52708L23.362513 184.52708L23.362513 183.74583L24.143763 183.74583Q23.596888 183.43333 23.425013 183.18333Q23.253138 182.93333 23.253138 182.62083Q23.253138 182.16771 23.534388 181.71458L24.346888 182.01146Q24.159388 182.33958 24.159388 182.66771Q24.159388 182.94896 24.331263 183.18333Q24.503138 183.41771 24.815638 183.51146Q25.284388 183.65208 25.831263 183.65208L28.550013 183.65208L28.550013 184.52708ZM27.909388 178.13646Q28.331263 178.62083 28.503138 179.07396Q28.675013 179.52708 28.675013 180.04271Q28.675013 180.90208 28.253138 181.37083Q27.831263 181.82396 27.175013 181.82396Q26.800013 181.82396 26.487513 181.65208Q26.175013 181.48021 25.987513 181.19896Q25.784388 180.91771 25.690638 180.55833Q25.628138 180.30833 25.565638 179.77708Q25.440638 178.71458 25.253138 178.21458Q25.081263 178.21458 25.034388 178.21458Q24.487513 178.21458 24.268763 178.46458Q23.971888 178.79271 23.971888 179.46458Q23.971888 180.07396 24.190638 180.37083Q24.409388 180.66771 24.956263 180.80833L24.846888 181.66771Q24.284388 181.55833 23.956263 181.29271Q23.612513 181.01146 23.440638 180.51146Q23.253138 179.99583 23.253138 179.32396Q23.253138 178.66771 23.409388 178.26146Q23.565638 177.83958 23.800013 177.65208Q24.034388 177.44896 24.393763 177.37083Q24.612513 177.32396 25.206263 177.32396L26.378138 177.32396Q27.596888 177.32396 27.925013 177.27708Q28.253138 177.21458 28.550013 177.04271L28.550013 177.96458Q28.268763 178.10521 27.909388 178.13646ZM25.940638 178.21458Q26.143763 178.69896 26.284388 179.65208Q26.362513 180.18333 26.456263 180.41771Q26.550013 180.63646 26.737513 180.76146Q26.925013 180.88646 27.159388 180.88646Q27.503138 180.88646 27.737513 180.62083Q27.971888 180.35521 27.971888 179.83958Q27.971888 179.32396 27.753138 178.93333Q27.534388 178.54271 27.143763 178.35521Q26.846888 178.21458 26.268763 178.21458L25.940638 178.21458ZM27.768763 173.60521L28.534388 173.48021Q28.612513 173.85521 28.612513 174.13646Q28.612513 174.62083 28.471888 174.88646Q28.315638 175.15208 28.065638 175.26146Q27.815638 175.35521 27.034388 175.35521L24.050013 175.35521L24.050013 176.01146L23.362513 176.01146L23.362513 175.35521L22.081263 175.35521L21.550013 174.49583L23.362513 174.49583L23.362513 173.60521L24.050013 173.60521L24.050013 174.49583L27.081263 174.49583Q27.456263 174.49583 27.565638 174.44896Q27.675013 174.40208 27.737513 174.29271Q27.800013 174.18333 27.800013 173.99583Q27.800013 173.83958 27.768763 173.60521ZM22.409388 172.51146L21.393763 172.51146L21.393763 171.63646L22.409388 171.63646L22.409388 172.51146ZM28.550013 172.51146L23.362513 172.51146L23.362513 171.63646L28.550013 171.63646L28.550013 172.51146ZM25.956263 169.85521Q24.518763 169.85521 23.815638 169.04271Q23.253138 168.38646 23.253138 167.41771Q23.253138 166.35521 23.956263 165.68333Q24.643763 164.99583 25.878138 164.99583Q26.878138 164.99583 27.456263 165.29271Q28.034388 165.58958 28.362513 166.16771Q28.675013 166.74583 28.675013 167.41771Q28.675013 168.51146 27.971888 169.18333Q27.268763 169.85521 25.956263 169.85521ZM25.956263 168.94896Q26.956263 168.94896 27.456263 168.51146Q27.940638 168.07396 27.940638 167.41771Q27.940638 166.76146 27.440638 166.33958Q26.940638 165.90208 25.925013 165.90208Q24.971888 165.90208 24.471888 166.33958Q23.971888 166.77708 23.971888 167.41771Q23.971888 168.07396 24.471888 168.51146Q24.956263 168.94896 25.956263 168.94896ZM28.550013 163.29271L27.550013 163.29271L27.550013 162.29271L28.550013 162.29271Q29.096888 162.29271 29.440638 162.49583Q29.784388 162.68333 29.971888 163.10521L29.596888 163.35521Q29.471888 163.07396 29.221888 162.94896Q28.987513 162.80833 28.550013 162.79271L28.550013 163.29271ZM27.909388 154.13646Q28.331263 154.62083 28.503138 155.07396Q28.675013 155.52708 28.675013 156.04271Q28.675013 156.90208 28.253138 157.37083Q27.831263 157.82396 27.175013 157.82396Q26.800013 157.82396 26.487513 157.65208Q26.175013 157.48021 25.987513 157.19896Q25.784388 156.91771 25.690638 156.55833Q25.628138 156.30833 25.565638 155.77708Q25.440638 154.71458 25.253138 154.21458Q25.081263 154.21458 25.034388 154.21458Q24.487513 154.21458 24.268763 154.46458Q23.971888 154.79271 23.971888 155.46458Q23.971888 156.07396 24.190638 156.37083Q24.409388 156.66771 24.956263 156.80833L24.846888 157.66771Q24.284388 157.55833 23.956263 157.29271Q23.612513 157.01146 23.440638 156.51146Q23.253138 155.99583 23.253138 155.32396Q23.253138 154.66771 23.409388 154.26146Q23.565638 153.83958 23.800013 153.65208Q24.034388 153.44896 24.393763 153.37083Q24.612513 153.32396 25.206263 153.32396L26.378138 153.32396Q27.596888 153.32396 27.925013 153.27708Q28.253138 153.21458 28.550013 153.04271L28.550013 153.96458Q28.268763 154.10521 27.909388 154.13646ZM25.940638 154.21458Q26.143763 154.69896 26.284388 155.65208Q26.362513 156.18333 26.456263 156.41771Q26.550013 156.63646 26.737513 156.76146Q26.925013 156.88646 27.159388 156.88646Q27.503138 156.88646 27.737513 156.62083Q27.971888 156.35521 27.971888 155.83958Q27.971888 155.32396 27.753138 154.93333Q27.534388 154.54271 27.143763 154.35521Q26.846888 154.21458 26.268763 154.21458L25.940638 154.21458ZM28.987513 151.68333L29.112513 150.82396Q29.503138 150.77708 29.690638 150.52708Q29.925013 150.19896 29.925013 149.63646Q29.925013 149.02708 29.675013 148.69896Q29.440638 148.37083 29.003138 148.24583Q28.737513 148.18333 27.878138 148.18333Q28.550013 148.76146 28.550013 149.62083Q28.550013 150.68333 27.784388 151.27708Q27.003138 151.85521 25.925013 151.85521Q25.190638 151.85521 24.565638 151.58958Q23.925013 151.32396 23.596888 150.82396Q23.253138 150.30833 23.253138 149.62083Q23.253138 148.69896 23.987513 148.10521L23.362513 148.10521L23.362513 147.29271L27.846888 147.29271Q29.065638 147.29271 29.565638 147.54271Q30.065638 147.77708 30.362513 148.32396Q30.659388 148.85521 30.659388 149.63646Q30.659388 150.55833 30.237513 151.13646Q29.815638 151.69896 28.987513 151.68333ZM25.862513 150.96458Q26.878138 150.96458 27.346888 150.55833Q27.815638 150.15208 27.815638 149.54271Q27.815638 148.93333 27.362513 148.52708Q26.893763 148.10521 25.893763 148.10521Q24.940638 148.10521 24.456263 148.52708Q23.971888 148.94896 23.971888 149.55833Q23.971888 150.13646 24.456263 150.55833Q24.925013 150.96458 25.862513 150.96458ZM26.878138 141.98021L26.987513 141.05833Q27.784388 141.27708 28.237513 141.87083Q28.675013 142.44896 28.675013 143.33958Q28.675013 144.48021 27.971888 145.15208Q27.268763 145.82396 26.003138 145.82396Q24.690638 145.82396 23.971888 145.15208Q23.253138 144.46458 23.253138 143.40208Q23.253138 142.35521 23.956263 141.69896Q24.659388 141.04271 25.940638 141.04271Q26.018763 141.04271 26.175013 141.04271L26.175013 144.90208Q27.034388 144.85521 27.487513 144.43333Q27.940638 143.99583 27.940638 143.33958Q27.940638 142.85521 27.690638 142.51146Q27.440638 142.16771 26.878138 141.98021ZM25.456263 144.85521L25.456263 141.96458Q24.800013 142.02708 24.471888 142.29271Q23.971888 142.71458 23.971888 143.38646Q23.971888 143.99583 24.378138 144.40208Q24.784388 144.80833 25.456263 144.85521ZM27.003138 139.87083L26.862513 139.01146Q27.393763 138.93333 27.675013 138.60521Q27.940638 138.26146 27.940638 137.66771Q27.940638 137.05833 27.706263 136.76146Q27.456263 136.46458 27.112513 136.46458Q26.815638 136.46458 26.643763 136.73021Q26.534388 136.91771 26.346888 137.63646Q26.112513 138.58958 25.940638 138.96458Q25.753138 139.33958 25.440638 139.54271Q25.128138 139.73021 24.737513 139.73021Q24.393763 139.73021 24.096888 139.57396Q23.800013 139.41771 23.612513 139.13646Q23.456263 138.93333 23.362513 138.58958Q23.253138 138.23021 23.253138 137.82396Q23.253138 137.21458 23.425013 136.76146Q23.596888 136.29271 23.909388 136.07396Q24.206263 135.83958 24.706263 135.76146L24.815638 136.62083Q24.425013 136.68333 24.206263 136.96458Q23.971888 137.24583 23.971888 137.76146Q23.971888 138.35521 24.175013 138.62083Q24.362513 138.88646 24.643763 138.88646Q24.815638 138.88646 24.940638 138.77708Q25.081263 138.66771 25.175013 138.43333Q25.221888 138.30833 25.409388 137.65208Q25.659388 136.73021 25.815638 136.37083Q25.971888 135.99583 26.284388 135.79271Q26.581263 135.57396 27.018763 135.57396Q27.471888 135.57396 27.862513 135.82396Q28.237513 136.07396 28.456263 136.55833Q28.675013 137.04271 28.675013 137.65208Q28.675013 138.66771 28.253138 139.19896Q27.831263 139.73021 27.003138 139.87083ZM28.550013 129.46458L28.550013 130.33958L22.956263 130.33958Q23.253138 130.65208 23.565638 131.16771Q23.862513 131.68333 24.003138 132.08958L23.159388 132.08958Q22.815638 131.35521 22.331263 130.80833Q21.831263 130.24583 21.362513 130.02708L21.362513 129.46458L28.550013 129.46458ZM26.675013 126.76146L26.596888 125.839584Q27.268763 125.745834 27.612513 125.370834Q27.956263 124.995834 27.956263 124.464584Q27.956263 123.839584 27.471888 123.402084Q26.987513 122.94896 26.206263 122.94896Q25.456263 122.94896 25.018763 123.370834Q24.581263 123.79271 24.581263 124.48021Q24.581263 124.902084 24.784388 125.245834Q24.971888 125.589584 25.268763 125.79271L25.159388 126.60521L21.487513 125.91771L21.487513 122.35521L22.331263 122.35521L22.331263 125.214584L24.253138 125.60521Q23.800013 124.94896 23.800013 124.245834Q23.800013 123.308334 24.456263 122.66771Q25.096888 122.027084 26.128138 122.027084Q27.096888 122.027084 27.800013 122.589584Q28.675013 123.277084 28.675013 124.464584Q28.675013 125.44896 28.128138 126.07396Q27.581263 126.683334 26.675013 126.76146ZM26.393763 120.870834L25.518763 120.870834L25.518763 118.16771L26.393763 118.16771L26.393763 120.870834ZM27.706263 113.152084L28.550013 113.152084L28.550013 117.88646Q28.237513 117.88646 27.940638 117.777084Q27.456263 117.589584 26.987513 117.19896Q26.518763 116.808334 25.909388 116.04271Q24.940638 114.88646 24.393763 114.48021Q23.831263 114.058334 23.331263 114.058334Q22.800013 114.058334 22.456263 114.433334Q22.096888 114.808334 22.096888 115.402084Q22.096888 116.04271 22.471888 116.433334Q22.846888 116.808334 23.518763 116.808334L23.425013 117.714584Q22.425013 117.620834 21.893763 117.027084Q21.362513 116.41771 21.362513 115.38646Q21.362513 114.35521 21.940638 113.76146Q22.503138 113.152084 23.346888 113.152084Q23.784388 113.152084 24.206263 113.339584Q24.612513 113.51146 25.081263 113.91771Q25.534388 114.32396 26.331263 115.277084Q26.987513 116.058334 27.237513 116.29271Q27.471888 116.51146 27.706263 116.652084L27.706263 113.152084ZM28.550013 108.94896L26.831263 108.94896L26.831263 112.058334L26.034388 112.058334L21.393763 108.79271L21.393763 108.07396L26.034388 108.07396L26.034388 107.10521L26.831263 107.10521L26.831263 108.07396L28.550013 108.07396L28.550013 108.94896ZM26.034388 108.94896L22.800013 108.94896L26.034388 111.19896L26.034388 108.94896ZM28.550013 105.29271L27.550013 105.29271L27.550013 104.29271L28.550013 104.29271Q29.096888 104.29271 29.440638 104.495834Q29.784388 104.683334 29.971888 105.10521L29.596888 105.35521Q29.471888 105.07396 29.221888 104.94896Q28.987513 104.808334 28.550013 104.79271L28.550013 105.29271ZM28.550013 99.527084L23.362513 99.527084L23.362513 98.73021L24.096888 98.73021Q23.706263 98.495834 23.487513 98.089584Q23.253138 97.683334 23.253138 97.16771Q23.253138 96.589584 23.487513 96.23021Q23.721888 95.85521 24.159388 95.69896Q23.253138 95.089584 23.253138 94.10521Q23.253138 93.32396 23.675013 92.91771Q24.096888 92.495834 24.987513 92.495834L28.550013 92.495834L28.550013 93.370834L25.284388 93.370834Q24.753138 93.370834 24.518763 93.464584Q24.284388 93.54271 24.143763 93.777084Q24.003138 93.995834 24.003138 94.29271Q24.003138 94.839584 24.378138 95.19896Q24.737513 95.558334 25.534388 95.558334L28.550013 95.558334L28.550013 96.44896L25.175013 96.44896Q24.596888 96.44896 24.300013 96.66771Q24.003138 96.870834 24.003138 97.35521Q24.003138 97.73021 24.206263 98.04271Q24.393763 98.35521 24.768763 98.51146Q25.143763 98.652084 25.862513 98.652084L28.550013 98.652084L28.550013 99.527084ZM27.909388 87.13646Q28.331263 87.620834 28.503138 88.07396Q28.675013 88.527084 28.675013 89.04271Q28.675013 89.902084 28.253138 90.370834Q27.831263 90.82396 27.175013 90.82396Q26.800013 90.82396 26.487513 90.652084Q26.175013 90.48021 25.987513 90.19896Q25.784388 89.91771 25.690638 89.558334Q25.628138 89.308334 25.565638 88.777084Q25.440638 87.714584 25.253138 87.214584Q25.081263 87.214584 25.034388 87.214584Q24.487513 87.214584 24.268763 87.464584Q23.971888 87.79271 23.971888 88.464584Q23.971888 89.07396 24.190638 89.370834Q24.409388 89.66771 24.956263 89.808334L24.846888 90.66771Q24.284388 90.558334 23.956263 90.29271Q23.612513 90.01146 23.440638 89.51146Q23.253138 88.995834 23.253138 88.32396Q23.253138 87.66771 23.409388 87.26146Q23.565638 86.839584 23.800013 86.652084Q24.034388 86.44896 24.393763 86.370834Q24.612513 86.32396 25.206263 86.32396L26.378138 86.32396Q27.596888 86.32396 27.925013 86.277084Q28.253138 86.214584 28.550013 86.04271L28.550013 86.964584Q28.268763 87.10521 27.909388 87.13646ZM25.940638 87.214584Q26.143763 87.69896 26.284388 88.652084Q26.362513 89.183334 26.456263 89.41771Q26.550013 89.63646 26.737513 89.76146Q26.925013 89.88646 27.159388 89.88646Q27.503138 89.88646 27.737513 89.620834Q27.971888 89.35521 27.971888 88.839584Q27.971888 88.32396 27.753138 87.933334Q27.534388 87.54271 27.143763 87.35521Q26.846888 87.214584 26.268763 87.214584L25.940638 87.214584ZM28.550013 84.54271L21.393763 84.54271L21.393763 83.66771L28.550013 83.66771L28.550013 84.54271ZM26.878138 77.980194L26.987513 77.05832Q27.784388 77.27707 28.237513 77.87082Q28.675013 78.448944 28.675013 79.33957Q28.675013 80.480194 27.971888 81.15207Q27.268763 81.823944 26.003138 81.823944Q24.690638 81.823944 23.971888 81.15207Q23.253138 80.46457 23.253138 79.40207Q23.253138 78.355194 23.956263 77.698944Q24.659388 77.042694 25.940638 77.042694Q26.018763 77.042694 26.175013 77.042694L26.175013 80.90207Q27.034388 80.855194 27.487513 80.43332Q27.940638 79.99582 27.940638 79.33957Q27.940638 78.855194 27.690638 78.511444Q27.440638 78.167694 26.878138 77.980194ZM25.456263 80.855194L25.456263 77.96457Q24.800013 78.02707 24.471888 78.292694Q23.971888 78.71457 23.971888 79.386444Q23.971888 79.99582 24.378138 80.40207Q24.784388 80.80832 25.456263 80.855194ZM30.659388 73.83957Q29.737513 74.573944 28.503138 75.073944Q27.268763 75.573944 25.956263 75.573944Q24.800013 75.573944 23.737513 75.198944Q22.487513 74.761444 21.268763 73.83957L21.268763 73.21457Q22.284388 73.80832 22.721888 73.99582Q23.393763 74.292694 24.128138 74.46457Q25.034388 74.667694 25.956263 74.667694Q28.315638 74.667694 30.659388 73.21457L30.659388 73.83957ZM23.112513 72.605194Q22.346888 72.605194 21.815638 72.21457Q21.268763 71.823944 21.268763 71.105194Q21.268763 70.417694 21.753138 69.980194Q22.237513 69.542694 23.159388 69.542694Q24.065638 69.542694 24.565638 69.99582Q25.050013 70.43332 25.050013 71.08957Q25.050013 71.730194 24.565638 72.167694Q24.081263 72.605194 23.112513 72.605194ZM21.878138 71.073944Q21.878138 71.40207 22.159388 71.62082Q22.440638 71.83957 23.190638 71.83957Q23.893763 71.83957 24.175013 71.62082Q24.440638 71.40207 24.440638 71.073944Q24.440638 70.74582 24.159388 70.52707Q23.878138 70.30832 23.128138 70.30832Q22.440638 70.30832 22.159388 70.52707Q21.878138 70.74582 21.878138 71.073944ZM28.815638 71.073944L21.268763 67.15207L21.268763 66.43332L28.815638 70.33957L28.815638 71.073944ZM26.862513 67.980194Q26.096888 67.980194 25.565638 67.58957Q25.034388 67.198944 25.034388 66.46457Q25.034388 65.792694 25.518763 65.355194Q25.987513 64.90207 26.925013 64.90207Q27.831263 64.90207 28.331263 65.355194Q28.815638 65.792694 28.815638 66.46457Q28.815638 67.105194 28.331263 67.542694Q27.846888 67.980194 26.862513 67.980194ZM25.628138 66.43332Q25.628138 66.77707 25.925013 66.99582Q26.206263 67.198944 26.956263 67.198944Q27.643763 67.198944 27.925013 66.980194Q28.206263 66.761444 28.206263 66.448944Q28.206263 66.105194 27.925013 65.886444Q27.643763 65.667694 26.893763 65.667694Q26.190638 65.667694 25.909388 65.886444Q25.628138 66.105194 25.628138 66.43332ZM30.659388 62.948944L30.659388 63.573944Q28.315638 62.12082 25.956263 62.12082Q25.050013 62.12082 24.143763 62.323944Q23.409388 62.49582 22.737513 62.792694Q22.300013 62.980194 21.268763 63.573944L21.268763 62.948944Q22.487513 62.02707 23.737513 61.58957Q24.800013 61.21457 25.956263 61.21457Q27.268763 61.21457 28.503138 61.730194Q29.737513 62.230194 30.659388 62.948944Z" fill-rule="nonzero"/><path fill="#000000" d="M61.05 300.21564Q61.05 298.6844 61.3625 297.7625Q61.675 296.825 62.284374 296.325Q62.909374 295.825 63.846874 295.825Q64.53438 295.825 65.05 296.10626Q65.58125 296.3875 65.925 296.91876Q66.26875 297.4344 66.45625 298.1844Q66.64375 298.9344 66.64375 300.21564Q66.64375 301.73126 66.33125 302.65314Q66.03438 303.575 65.40938 304.09064Q64.8 304.59064 63.846874 304.59064Q62.6125 304.59064 61.89375 303.7Q61.05 302.6375 61.05 300.21564ZM62.128124 300.21564Q62.128124 302.325 62.628124 303.02814Q63.128124 303.73126 63.846874 303.73126Q64.58125 303.73126 65.06563 303.02814Q65.56563 302.325 65.56563 300.21564Q65.56563 298.09064 65.06563 297.40314Q64.58125 296.7 63.83125 296.7Q63.1125 296.7 62.675 297.3094Q62.128124 298.09064 62.128124 300.21564Z" fill-rule="nonzero"/><path fill="#000000" d="M59.596874 223.92326L59.596874 224.93889L53.909374 224.93889Q53.909374 224.56389 54.034374 224.20451Q54.253124 223.62639 54.721874 223.06389Q55.20625 222.50139 56.1125 221.76701Q57.51875 220.61076 58.003124 219.93889Q58.503124 219.26701 58.503124 218.67326Q58.503124 218.04826 58.05 217.62639Q57.596874 217.18889 56.878124 217.18889Q56.1125 217.18889 55.659374 217.64201Q55.20625 218.09514 55.190624 218.90764L54.1125 218.79826Q54.221874 217.57951 54.940624 216.95451Q55.675 216.31389 56.909374 216.31389Q58.14375 216.31389 58.8625 217.00139Q59.58125 217.68889 59.58125 218.70451Q59.58125 219.22014 59.3625 219.72014Q59.159374 220.20451 58.659374 220.76701Q58.175 221.31389 57.05 222.26701Q56.096874 223.06389 55.815624 223.36076Q55.55 223.64201 55.378124 223.92326L59.596874 223.92326ZM61.05 220.70451Q61.05 219.17326 61.3625 218.25139Q61.675 217.31389 62.284374 216.81389Q62.909374 216.31389 63.846874 216.31389Q64.53438 216.31389 65.05 216.59514Q65.58125 216.87639 65.925 217.40764Q66.26875 217.92326 66.45625 218.67326Q66.64375 219.42326 66.64375 220.70451Q66.64375 222.22014 66.33125 223.14201Q66.03438 224.06389 65.40938 224.57951Q64.8 225.07951 63.846874 225.07951Q62.6125 225.07951 61.89375 224.18889Q61.05 223.12639 61.05 220.70451ZM62.128124 220.70451Q62.128124 222.81389 62.628124 223.51701Q63.128124 224.22014 63.846874 224.22014Q64.58125 224.22014 65.06563 223.51701Q65.56563 222.81389 65.56563 220.70451Q65.56563 218.57951 65.06563 217.89201Q64.58125 217.18889 63.83125 217.18889Q63.1125 217.18889 62.675 217.79826Q62.128124 218.57951 62.128124 220.70451Z" fill-rule="nonzero"/><path fill="#000000" d="M57.425 145.42778L57.425 143.36528L53.70625 143.36528L53.70625 142.39653L57.628124 136.83403L58.4875 136.83403L58.4875 142.39653L59.64375 142.39653L59.64375 143.36528L58.4875 143.36528L58.4875 145.42778L57.425 145.42778ZM57.425 142.39653L57.425 138.53716L54.7375 142.39653L57.425 142.39653ZM61.05 141.1934Q61.05 139.66216 61.3625 138.74028Q61.675 137.80278 62.284374 137.30278Q62.909374 136.80278 63.846874 136.80278Q64.53438 136.80278 65.05 137.08403Q65.58125 137.36528 65.925 137.89653Q66.26875 138.41216 66.45625 139.16216Q66.64375 139.91216 66.64375 141.1934Q66.64375 142.70903 66.33125 143.6309Q66.03438 144.55278 65.40938 145.0684Q64.8 145.5684 63.846874 145.5684Q62.6125 145.5684 61.89375 144.67778Q61.05 143.61528 61.05 141.1934ZM62.128124 141.1934Q62.128124 143.30278 62.628124 144.0059Q63.128124 144.70903 63.846874 144.70903Q64.58125 144.70903 65.06563 144.0059Q65.56563 143.30278 65.56563 141.1934Q65.56563 139.0684 65.06563 138.3809Q64.58125 137.67778 63.83125 137.67778Q63.1125 137.67778 62.675 138.28716Q62.128124 139.0684 62.128124 141.1934Z" fill-rule="nonzero"/><path fill="#000000" d="M59.51875 59.43229L58.471874 59.510414Q58.33125 58.885414 58.08125 58.604164Q57.64375 58.15104 57.01875 58.15104Q56.51875 58.15104 56.128124 58.43229Q55.64375 58.80729 55.346874 59.510414Q55.065624 60.197914 55.05 61.479164Q55.425 60.90104 55.971874 60.61979Q56.534374 60.33854 57.14375 60.33854Q58.190624 60.33854 58.925 61.11979Q59.675 61.90104 59.675 63.11979Q59.675 63.93229 59.315624 64.635414Q58.971874 65.322914 58.3625 65.697914Q57.753124 66.05729 56.9875 66.05729Q55.659374 66.05729 54.83125 65.08854Q54.003124 64.11979 54.003124 61.90104Q54.003124 59.40104 54.925 58.27604Q55.721874 57.291664 57.08125 57.291664Q58.096874 57.291664 58.7375 57.86979Q59.39375 58.43229 59.51875 59.43229ZM55.221874 63.135414Q55.221874 63.68229 55.440624 64.18229Q55.675 64.666664 56.08125 64.93229Q56.503124 65.197914 56.971874 65.197914Q57.628124 65.197914 58.1125 64.666664Q58.596874 64.11979 58.596874 63.197914Q58.596874 62.30729 58.1125 61.791664Q57.64375 61.27604 56.925 61.27604Q56.20625 61.27604 55.70625 61.791664Q55.221874 62.30729 55.221874 63.135414ZM61.05 61.68229Q61.05 60.15104 61.3625 59.229164Q61.675 58.291664 62.284374 57.791664Q62.909374 57.291664 63.846874 57.291664Q64.53438 57.291664 65.05 57.572914Q65.58125 57.854164 65.925 58.385414Q66.26875 58.90104 66.45625 59.65104Q66.64375 60.40104 66.64375 61.68229Q66.64375 63.197914 66.33125 64.11979Q66.03438 65.041664 65.40938 65.55729Q64.8 66.05729 63.846874 66.05729Q62.6125 66.05729 61.89375 65.166664Q61.05 64.104164 61.05 61.68229ZM62.128124 61.68229Q62.128124 63.791664 62.628124 64.49479Q63.128124 65.197914 63.846874 65.197914Q64.58125 65.197914 65.06563 64.49479Q65.56563 63.791664 65.56563 61.68229Q65.56563 59.55729 65.06563 58.86979Q64.58125 58.166664 63.83125 58.166664Q63.1125 58.166664 62.675 58.77604Q62.128124 59.55729 62.128124 61.68229Z" fill-rule="nonzero"/><path fill="#000000" d="M136.6925 317.45L135.64563 317.45L135.64563 310.73126Q135.255 311.09064 134.63 311.46564Q134.02063 311.825 133.53625 311.9969L133.53625 310.98126Q134.41125 310.5594 135.0675 309.98126Q135.73938 309.3875 136.02063 308.825L136.6925 308.825L136.6925 317.45ZM139.88 315.46564L140.89563 315.3719Q141.02063 316.09064 141.38 316.41876Q141.755 316.73126 142.3175 316.73126Q142.80188 316.73126 143.16125 316.5125Q143.53625 316.27814 143.77063 315.91876Q144.005 315.54376 144.16125 314.91876Q144.3175 314.27814 144.3175 313.6219Q144.3175 313.54376 144.3175 313.40314Q144.005 313.90314 143.45813 314.23126Q142.91125 314.54376 142.27063 314.54376Q141.1925 314.54376 140.45813 313.77814Q139.72375 312.9969 139.72375 311.73126Q139.72375 310.41876 140.48938 309.6219Q141.27063 308.825 142.42688 308.825Q143.255 308.825 143.9425 309.27814Q144.64563 309.73126 145.005 310.575Q145.36438 311.40314 145.36438 312.98126Q145.36438 314.6219 145.005 315.60626Q144.66125 316.575 143.9425 317.09064Q143.23938 317.59064 142.30188 317.59064Q141.28625 317.59064 140.64563 317.04376Q140.005 316.48126 139.88 315.46564ZM144.1925 311.66876Q144.1925 310.7625 143.70813 310.23126Q143.23938 309.7 142.55188 309.7Q141.84875 309.7 141.3175 310.27814Q140.80188 310.84064 140.80188 311.7625Q140.80188 312.575 141.30188 313.09064Q141.80188 313.60626 142.52063 313.60626Q143.255 313.60626 143.72375 313.09064Q144.1925 312.575 144.1925 311.66876ZM146.88 315.46564L147.89563 315.3719Q148.02063 316.09064 148.38 316.41876Q148.755 316.73126 149.3175 316.73126Q149.80188 316.73126 150.16125 316.5125Q150.53625 316.27814 150.77063 315.91876Q151.005 315.54376 151.16125 314.91876Q151.3175 314.27814 151.3175 313.6219Q151.3175 313.54376 151.3175 313.40314Q151.005 313.90314 150.45813 314.23126Q149.91125 314.54376 149.27063 314.54376Q148.1925 314.54376 147.45813 313.77814Q146.72375 312.9969 146.72375 311.73126Q146.72375 310.41876 147.48938 309.6219Q148.27063 308.825 149.42688 308.825Q150.255 308.825 150.9425 309.27814Q151.64563 309.73126 152.005 310.575Q152.36438 311.40314 152.36438 312.98126Q152.36438 314.6219 152.005 315.60626Q151.66125 316.575 150.9425 317.09064Q150.23938 317.59064 149.30188 317.59064Q148.28625 317.59064 147.64563 317.04376Q147.005 316.48126 146.88 315.46564ZM151.1925 311.66876Q151.1925 310.7625 150.70813 310.23126Q150.23938 309.7 149.55188 309.7Q148.84875 309.7 148.3175 310.27814Q147.80188 310.84064 147.80188 311.7625Q147.80188 312.575 148.30188 313.09064Q148.80188 313.60626 149.52063 313.60626Q150.255 313.60626 150.72375 313.09064Q151.1925 312.575 151.1925 311.66876ZM153.72375 315.2L154.83313 315.10626Q154.95813 315.91876 155.39563 316.325Q155.84875 316.73126 156.48938 316.73126Q157.23938 316.73126 157.77063 316.15314Q158.30188 315.575 158.30188 314.6375Q158.30188 313.73126 157.78625 313.21564Q157.28625 312.6844 156.45813 312.6844Q155.95813 312.6844 155.53625 312.91876Q155.13 313.15314 154.89563 313.5125L153.91125 313.3875L154.73938 308.98126L159.02063 308.98126L159.02063 309.98126L155.58313 309.98126L155.13 312.29376Q155.89563 311.7469 156.73938 311.7469Q157.86438 311.7469 158.63 312.52814Q159.41125 313.3094 159.41125 314.54376Q159.41125 315.7 158.73938 316.5594Q157.91125 317.59064 156.48938 317.59064Q155.3175 317.59064 154.5675 316.9344Q153.83313 316.27814 153.72375 315.2Z" fill-rule="nonzero"/><path fill="#000000" d="M217.08638 316.4344L217.08638 317.45L211.39888 317.45Q211.39888 317.075 211.52388 316.71564Q211.74263 316.1375 212.21138 315.575Q212.69576 315.0125 213.602 314.27814Q215.00826 313.1219 215.49263 312.45Q215.99263 311.77814 215.99263 311.1844Q215.99263 310.5594 215.5395 310.1375Q215.08638 309.7 214.36763 309.7Q213.602 309.7 213.14888 310.15314Q212.69576 310.60626 212.68013 311.41876L211.602 311.3094Q211.71138 310.09064 212.43013 309.46564Q213.1645 308.825 214.39888 308.825Q215.63326 308.825 216.352 309.5125Q217.07076 310.2 217.07076 311.21564Q217.07076 311.73126 216.852 312.23126Q216.64888 312.71564 216.14888 313.27814Q215.6645 313.825 214.5395 314.77814Q213.58638 315.575 213.30513 315.8719Q213.0395 316.15314 212.86763 316.4344L217.08638 316.4344ZM218.5395 313.21564Q218.5395 311.6844 218.852 310.7625Q219.1645 309.825 219.77388 309.325Q220.39888 308.825 221.33638 308.825Q222.02388 308.825 222.5395 309.10626Q223.07076 309.3875 223.4145 309.91876Q223.75826 310.4344 223.94576 311.1844Q224.13326 311.9344 224.13326 313.21564Q224.13326 314.73126 223.82076 315.65314Q223.52388 316.575 222.89888 317.09064Q222.2895 317.59064 221.33638 317.59064Q220.102 317.59064 219.38326 316.7Q218.5395 315.6375 218.5395 313.21564ZM219.61763 313.21564Q219.61763 315.325 220.11763 316.02814Q220.61763 316.73126 221.33638 316.73126Q222.07076 316.73126 222.55513 316.02814Q223.05513 315.325 223.05513 313.21564Q223.05513 311.09064 222.55513 310.40314Q222.07076 309.7 221.32076 309.7Q220.602 309.7 220.1645 310.3094Q219.61763 311.09064 219.61763 313.21564ZM225.5395 313.21564Q225.5395 311.6844 225.852 310.7625Q226.1645 309.825 226.77388 309.325Q227.39888 308.825 228.33638 308.825Q229.02388 308.825 229.5395 309.10626Q230.07076 309.3875 230.4145 309.91876Q230.75826 310.4344 230.94576 311.1844Q231.13326 311.9344 231.13326 313.21564Q231.13326 314.73126 230.82076 315.65314Q230.52388 316.575 229.89888 317.09064Q229.2895 317.59064 228.33638 317.59064Q227.102 317.59064 226.38326 316.7Q225.5395 315.6375 225.5395 313.21564ZM226.61763 313.21564Q226.61763 315.325 227.11763 316.02814Q227.61763 316.73126 228.33638 316.73126Q229.07076 316.73126 229.55513 316.02814Q230.05513 315.325 230.05513 313.21564Q230.05513 311.09064 229.55513 310.40314Q229.07076 309.7 228.32076 309.7Q227.602 309.7 227.1645 310.3094Q226.61763 311.09064 226.61763 313.21564ZM232.5395 313.21564Q232.5395 311.6844 232.852 310.7625Q233.1645 309.825 233.77388 309.325Q234.39888 308.825 235.33638 308.825Q236.02388 308.825 236.5395 309.10626Q237.07076 309.3875 237.4145 309.91876Q237.75826 310.4344 237.94576 311.1844Q238.13326 311.9344 238.13326 313.21564Q238.13326 314.73126 237.82076 315.65314Q237.52388 316.575 236.89888 317.09064Q236.2895 317.59064 235.33638 317.59064Q234.102 317.59064 233.38326 316.7Q232.5395 315.6375 232.5395 313.21564ZM233.61763 313.21564Q233.61763 315.325 234.11763 316.02814Q234.61763 316.73126 235.33638 316.73126Q236.07076 316.73126 236.55513 316.02814Q237.05513 315.325 237.05513 313.21564Q237.05513 311.09064 236.55513 310.40314Q236.07076 309.7 235.32076 309.7Q234.602 309.7 234.1645 310.3094Q233.61763 311.09064 233.61763 313.21564Z" fill-rule="nonzero"/><path fill="#000000" d="M295.90216 316.4344L295.90216 317.45L290.21466 317.45Q290.21466 317.075 290.33966 316.71564Q290.5584 316.1375 291.02716 315.575Q291.51154 315.0125 292.4178 314.27814Q293.82404 313.1219 294.3084 312.45Q294.8084 311.77814 294.8084 311.1844Q294.8084 310.5594 294.3553 310.1375Q293.90216 309.7 293.1834 309.7Q292.4178 309.7 291.96466 310.15314Q291.51154 310.60626 291.4959 311.41876L290.4178 311.3094Q290.52716 310.09064 291.2459 309.46564Q291.9803 308.825 293.21466 308.825Q294.44904 308.825 295.1678 309.5125Q295.88654 310.2 295.88654 311.21564Q295.88654 311.73126 295.6678 312.23126Q295.46466 312.71564 294.96466 313.27814Q294.4803 313.825 293.3553 314.77814Q292.40216 315.575 292.1209 315.8719Q291.8553 316.15314 291.6834 316.4344L295.90216 316.4344ZM297.3553 313.21564Q297.3553 311.6844 297.6678 310.7625Q297.9803 309.825 298.58966 309.325Q299.21466 308.825 300.15216 308.825Q300.83966 308.825 301.3553 309.10626Q301.88654 309.3875 302.2303 309.91876Q302.57404 310.4344 302.76154 311.1844Q302.94904 311.9344 302.94904 313.21564Q302.94904 314.73126 302.63654 315.65314Q302.33966 316.575 301.71466 317.09064Q301.1053 317.59064 300.15216 317.59064Q298.9178 317.59064 298.19904 316.7Q297.3553 315.6375 297.3553 313.21564ZM298.4334 313.21564Q298.4334 315.325 298.9334 316.02814Q299.4334 316.73126 300.15216 316.73126Q300.88654 316.73126 301.3709 316.02814Q301.8709 315.325 301.8709 313.21564Q301.8709 311.09064 301.3709 310.40314Q300.88654 309.7 300.13654 309.7Q299.4178 309.7 298.9803 310.3094Q298.4334 311.09064 298.4334 313.21564ZM304.3553 313.21564Q304.3553 311.6844 304.6678 310.7625Q304.9803 309.825 305.58966 309.325Q306.21466 308.825 307.15216 308.825Q307.83966 308.825 308.3553 309.10626Q308.88654 309.3875 309.2303 309.91876Q309.57404 310.4344 309.76154 311.1844Q309.94904 311.9344 309.94904 313.21564Q309.94904 314.73126 309.63654 315.65314Q309.33966 316.575 308.71466 317.09064Q308.1053 317.59064 307.15216 317.59064Q305.9178 317.59064 305.19904 316.7Q304.3553 315.6375 304.3553 313.21564ZM305.4334 313.21564Q305.4334 315.325 305.9334 316.02814Q306.4334 316.73126 307.15216 316.73126Q307.88654 316.73126 308.3709 316.02814Q308.8709 315.325 308.8709 313.21564Q308.8709 311.09064 308.3709 310.40314Q307.88654 309.7 307.13654 309.7Q306.4178 309.7 305.9803 310.3094Q305.4334 311.09064 305.4334 313.21564ZM311.3553 315.2L312.46466 315.10626Q312.58966 315.91876 313.02716 316.325Q313.4803 316.73126 314.1209 316.73126Q314.8709 316.73126 315.40216 316.15314Q315.9334 315.575 315.9334 314.6375Q315.9334 313.73126 315.4178 313.21564Q314.9178 312.6844 314.08966 312.6844Q313.58966 312.6844 313.1678 312.91876Q312.76154 313.15314 312.52716 313.5125L311.5428 313.3875L312.3709 308.98126L316.65216 308.98126L316.65216 309.98126L313.21466 309.98126L312.76154 312.29376Q313.52716 311.7469 314.3709 311.7469Q315.4959 311.7469 316.26154 312.52814Q317.0428 313.3094 317.0428 314.54376Q317.0428 315.7 316.3709 316.5594Q315.5428 317.59064 314.1209 317.59064Q312.94904 317.59064 312.19904 316.9344Q311.46466 316.27814 311.3553 315.2Z" fill-rule="nonzero"/><path fill="#000000" d="M374.7179 316.4344L374.7179 317.45L369.0304 317.45Q369.0304 317.075 369.1554 316.71564Q369.37415 316.1375 369.8429 315.575Q370.32727 315.0125 371.23352 314.27814Q372.63977 313.1219 373.12415 312.45Q373.62415 311.77814 373.62415 311.1844Q373.62415 310.5594 373.17102 310.1375Q372.7179 309.7 371.99915 309.7Q371.23352 309.7 370.7804 310.15314Q370.32727 310.60626 370.31165 311.41876L369.23352 311.3094Q369.3429 310.09064 370.06165 309.46564Q370.79602 308.825 372.0304 308.825Q373.26477 308.825 373.98352 309.5125Q374.70227 310.2 374.70227 311.21564Q374.70227 311.73126 374.48352 312.23126Q374.2804 312.71564 373.7804 313.27814Q373.29602 313.825 372.17102 314.77814Q371.2179 315.575 370.93665 315.8719Q370.67102 316.15314 370.49915 316.4344L374.7179 316.4344ZM376.17102 313.21564Q376.17102 311.6844 376.48352 310.7625Q376.79602 309.825 377.4054 309.325Q378.0304 308.825 378.9679 308.825Q379.6554 308.825 380.17102 309.10626Q380.70227 309.3875 381.04602 309.91876Q381.38977 310.4344 381.57727 311.1844Q381.76477 311.9344 381.76477 313.21564Q381.76477 314.73126 381.45227 315.65314Q381.1554 316.575 380.5304 317.09064Q379.92102 317.59064 378.9679 317.59064Q377.73352 317.59064 377.01477 316.7Q376.17102 315.6375 376.17102 313.21564ZM377.24915 313.21564Q377.24915 315.325 377.74915 316.02814Q378.24915 316.73126 378.9679 316.73126Q379.70227 316.73126 380.18665 316.02814Q380.68665 315.325 380.68665 313.21564Q380.68665 311.09064 380.18665 310.40314Q379.70227 309.7 378.95227 309.7Q378.23352 309.7 377.79602 310.3094Q377.24915 311.09064 377.24915 313.21564ZM387.13977 317.45L386.0929 317.45L386.0929 310.73126Q385.70227 311.09064 385.07727 311.46564Q384.4679 311.825 383.98352 311.9969L383.98352 310.98126Q384.85852 310.5594 385.51477 309.98126Q386.18665 309.3875 386.4679 308.825L387.13977 308.825L387.13977 317.45ZM390.17102 313.21564Q390.17102 311.6844 390.48352 310.7625Q390.79602 309.825 391.4054 309.325Q392.0304 308.825 392.9679 308.825Q393.6554 308.825 394.17102 309.10626Q394.70227 309.3875 395.04602 309.91876Q395.38977 310.4344 395.57727 311.1844Q395.76477 311.9344 395.76477 313.21564Q395.76477 314.73126 395.45227 315.65314Q395.1554 316.575 394.5304 317.09064Q393.92102 317.59064 392.9679 317.59064Q391.73352 317.59064 391.01477 316.7Q390.17102 315.6375 390.17102 313.21564ZM391.24915 313.21564Q391.24915 315.325 391.74915 316.02814Q392.24915 316.73126 392.9679 316.73126Q393.70227 316.73126 394.18665 316.02814Q394.68665 315.325 394.68665 313.21564Q394.68665 311.09064 394.18665 310.40314Q393.70227 309.7 392.95227 309.7Q392.23352 309.7 391.79602 310.3094Q391.24915 311.09064 391.24915 313.21564Z" fill-rule="nonzero"/><path fill="#000000" d="M453.53366 316.4344L453.53366 317.45L447.84616 317.45Q447.84616 317.075 447.97116 316.71564Q448.1899 316.1375 448.65866 315.575Q449.14304 315.0125 450.0493 314.27814Q451.45554 313.1219 451.9399 312.45Q452.4399 311.77814 452.4399 311.1844Q452.4399 310.5594 451.9868 310.1375Q451.53366 309.7 450.8149 309.7Q450.0493 309.7 449.59616 310.15314Q449.14304 310.60626 449.1274 311.41876L448.0493 311.3094Q448.15866 310.09064 448.8774 309.46564Q449.6118 308.825 450.84616 308.825Q452.08054 308.825 452.7993 309.5125Q453.51804 310.2 453.51804 311.21564Q453.51804 311.73126 453.2993 312.23126Q453.09616 312.71564 452.59616 313.27814Q452.1118 313.825 450.9868 314.77814Q450.03366 315.575 449.7524 315.8719Q449.4868 316.15314 449.3149 316.4344L453.53366 316.4344ZM454.9868 313.21564Q454.9868 311.6844 455.2993 310.7625Q455.6118 309.825 456.22116 309.325Q456.84616 308.825 457.78366 308.825Q458.47116 308.825 458.9868 309.10626Q459.51804 309.3875 459.8618 309.91876Q460.20554 310.4344 460.39304 311.1844Q460.58054 311.9344 460.58054 313.21564Q460.58054 314.73126 460.26804 315.65314Q459.97116 316.575 459.34616 317.09064Q458.7368 317.59064 457.78366 317.59064Q456.5493 317.59064 455.83054 316.7Q454.9868 315.6375 454.9868 313.21564ZM456.0649 313.21564Q456.0649 315.325 456.5649 316.02814Q457.0649 316.73126 457.78366 316.73126Q458.51804 316.73126 459.0024 316.02814Q459.5024 315.325 459.5024 313.21564Q459.5024 311.09064 459.0024 310.40314Q458.51804 309.7 457.76804 309.7Q457.0493 309.7 456.6118 310.3094Q456.0649 311.09064 456.0649 313.21564ZM465.95554 317.45L464.90866 317.45L464.90866 310.73126Q464.51804 311.09064 463.89304 311.46564Q463.28366 311.825 462.7993 311.9969L462.7993 310.98126Q463.6743 310.5594 464.33054 309.98126Q465.0024 309.3875 465.28366 308.825L465.95554 308.825L465.95554 317.45ZM468.9868 315.2L470.09616 315.10626Q470.22116 315.91876 470.65866 316.325Q471.1118 316.73126 471.7524 316.73126Q472.5024 316.73126 473.03366 316.15314Q473.5649 315.575 473.5649 314.6375Q473.5649 313.73126 473.0493 313.21564Q472.5493 312.6844 471.72116 312.6844Q471.22116 312.6844 470.7993 312.91876Q470.39304 313.15314 470.15866 313.5125L469.1743 313.3875L470.0024 308.98126L474.28366 308.98126L474.28366 309.98126L470.84616 309.98126L470.39304 312.29376Q471.15866 311.7469 472.0024 311.7469Q473.1274 311.7469 473.89304 312.52814Q474.6743 313.3094 474.6743 314.54376Q474.6743 315.7 474.0024 316.5594Q473.1743 317.59064 471.7524 317.59064Q470.58054 317.59064 469.83054 316.9344Q469.09616 316.27814 468.9868 315.2Z" fill-rule="nonzero"/><path fill="#000000" d="M532.3494 316.4344L532.3494 317.45L526.6619 317.45Q526.6619 317.075 526.7869 316.71564Q527.0057 316.1375 527.4744 315.575Q527.9588 315.0125 528.86505 314.27814Q530.2713 313.1219 530.7557 312.45Q531.2557 311.77814 531.2557 311.1844Q531.2557 310.5594 530.80255 310.1375Q530.3494 309.7 529.6307 309.7Q528.86505 309.7 528.4119 310.15314Q527.9588 310.60626 527.9432 311.41876L526.86505 311.3094Q526.9744 310.09064 527.6932 309.46564Q528.42755 308.825 529.6619 308.825Q530.8963 308.825 531.61505 309.5125Q532.3338 310.2 532.3338 311.21564Q532.3338 311.73126 532.11505 312.23126Q531.9119 312.71564 531.4119 313.27814Q530.92755 313.825 529.80255 314.77814Q528.8494 315.575 528.5682 315.8719Q528.30255 316.15314 528.1307 316.4344L532.3494 316.4344ZM533.80255 313.21564Q533.80255 311.6844 534.11505 310.7625Q534.42755 309.825 535.0369 309.325Q535.6619 308.825 536.5994 308.825Q537.2869 308.825 537.80255 309.10626Q538.3338 309.3875 538.67755 309.91876Q539.0213 310.4344 539.2088 311.1844Q539.3963 311.9344 539.3963 313.21564Q539.3963 314.73126 539.0838 315.65314Q538.7869 316.575 538.1619 317.09064Q537.55255 317.59064 536.5994 317.59064Q535.36505 317.59064 534.6463 316.7Q533.80255 315.6375 533.80255 313.21564ZM534.8807 313.21564Q534.8807 315.325 535.3807 316.02814Q535.8807 316.73126 536.5994 316.73126Q537.3338 316.73126 537.8182 316.02814Q538.3182 315.325 538.3182 313.21564Q538.3182 311.09064 537.8182 310.40314Q537.3338 309.7 536.5838 309.7Q535.86505 309.7 535.42755 310.3094Q534.8807 311.09064 534.8807 313.21564ZM546.3494 316.4344L546.3494 317.45L540.6619 317.45Q540.6619 317.075 540.7869 316.71564Q541.0057 316.1375 541.4744 315.575Q541.9588 315.0125 542.86505 314.27814Q544.2713 313.1219 544.7557 312.45Q545.2557 311.77814 545.2557 311.1844Q545.2557 310.5594 544.80255 310.1375Q544.3494 309.7 543.6307 309.7Q542.86505 309.7 542.4119 310.15314Q541.9588 310.60626 541.9432 311.41876L540.86505 311.3094Q540.9744 310.09064 541.6932 309.46564Q542.42755 308.825 543.6619 308.825Q544.8963 308.825 545.61505 309.5125Q546.3338 310.2 546.3338 311.21564Q546.3338 311.73126 546.11505 312.23126Q545.9119 312.71564 545.4119 313.27814Q544.92755 313.825 543.80255 314.77814Q542.8494 315.575 542.5682 315.8719Q542.30255 316.15314 542.1307 316.4344L546.3494 316.4344ZM547.80255 313.21564Q547.80255 311.6844 548.11505 310.7625Q548.42755 309.825 549.0369 309.325Q549.6619 308.825 550.5994 308.825Q551.2869 308.825 551.80255 309.10626Q552.3338 309.3875 552.67755 309.91876Q553.0213 310.4344 553.2088 311.1844Q553.3963 311.9344 553.3963 313.21564Q553.3963 314.73126 553.0838 315.65314Q552.7869 316.575 552.1619 317.09064Q551.55255 317.59064 550.5994 317.59064Q549.36505 317.59064 548.6463 316.7Q547.80255 315.6375 547.80255 313.21564ZM548.8807 313.21564Q548.8807 315.325 549.3807 316.02814Q549.8807 316.73126 550.5994 316.73126Q551.3338 316.73126 551.8182 316.02814Q552.3182 315.325 552.3182 313.21564Q552.3182 311.09064 551.8182 310.40314Q551.3338 309.7 550.5838 309.7Q549.86505 309.7 549.42755 310.3094Q548.8807 311.09064 548.8807 313.21564Z" fill-rule="nonzero"/><path fill="#757575" d="M20.034374 37.55L20.034374 23.2375L22.89375 23.2375L26.26875 33.3625Q26.7375 34.784374 26.95625 35.4875Q27.20625 34.70625 27.721874 33.190624L31.14375 23.2375L33.690624 23.2375L33.690624 37.55L31.878124 37.55L31.878124 25.565624L27.70625 37.55L26.003124 37.55L21.8625 25.3625L21.8625 37.55L20.034374 37.55ZM43.64375 36.26875Q42.659374 37.096874 41.753124 37.440624Q40.846874 37.784374 39.815624 37.784374Q38.1125 37.784374 37.190624 36.95625Q36.26875 36.1125 36.26875 34.815624Q36.26875 34.05 36.6125 33.425Q36.971874 32.8 37.534374 32.425Q38.096874 32.034374 38.8 31.83125Q39.315624 31.70625 40.3625 31.565624Q42.4875 31.315624 43.4875 30.971874Q43.503124 30.6125 43.503124 30.503124Q43.503124 29.440624 43.003124 28.9875Q42.33125 28.39375 41.003124 28.39375Q39.753124 28.39375 39.159374 28.83125Q38.58125 29.26875 38.3 30.378124L36.58125 30.14375Q36.815624 29.034374 37.346874 28.3625Q37.878124 27.675 38.89375 27.315624Q39.909374 26.940624 41.253124 26.940624Q42.58125 26.940624 43.409374 27.253124Q44.2375 27.565624 44.628124 28.05Q45.01875 28.51875 45.175 29.2375Q45.26875 29.690624 45.26875 30.8625L45.26875 33.20625Q45.26875 35.659374 45.378124 36.315624Q45.4875 36.95625 45.83125 37.55L43.9875 37.55Q43.721874 37.003124 43.64375 36.26875ZM43.4875 32.346874Q42.534374 32.7375 40.6125 33.003124Q39.534374 33.159374 39.08125 33.3625Q38.64375 33.55 38.39375 33.925Q38.14375 34.3 38.14375 34.76875Q38.14375 35.471874 38.675 35.940624Q39.20625 36.409374 40.2375 36.409374Q41.253124 36.409374 42.034374 35.971874Q42.83125 35.51875 43.20625 34.753124Q43.4875 34.14375 43.4875 32.9875L43.4875 32.346874ZM47.83125 37.55L47.83125 23.2375L49.58125 23.2375L49.58125 37.55L47.83125 37.55ZM58.971874 34.20625L60.784374 34.440624Q60.3625 36.01875 59.190624 36.909374Q58.034374 37.784374 56.221874 37.784374Q53.95625 37.784374 52.6125 36.39375Q51.284374 34.9875 51.284374 32.45625Q51.284374 29.83125 52.628124 28.39375Q53.971874 26.940624 56.128124 26.940624Q58.20625 26.940624 59.51875 28.3625Q60.846874 29.76875 60.846874 32.346874Q60.846874 32.503124 60.83125 32.815624L53.096874 32.815624Q53.190624 34.51875 54.065624 35.425Q54.940624 36.33125 56.2375 36.33125Q57.20625 36.33125 57.878124 35.83125Q58.565624 35.315624 58.971874 34.20625ZM53.190624 31.3625L58.9875 31.3625Q58.878124 30.065624 58.33125 29.409374Q57.4875 28.39375 56.14375 28.39375Q54.940624 28.39375 54.1125 29.20625Q53.284374 30.003124 53.190624 31.3625ZM69.09688 37.55L69.09688 23.2375L74.4875 23.2375Q75.925 23.2375 76.675 23.3625Q77.72188 23.55 78.44063 24.05Q79.15938 24.534374 79.58125 25.425Q80.01875 26.315624 80.01875 27.378124Q80.01875 29.20625 78.84688 30.471874Q77.69063 31.721874 74.65938 31.721874L70.9875 31.721874L70.9875 37.55L69.09688 37.55ZM70.9875 30.034374L74.69063 30.034374Q76.51875 30.034374 77.28438 29.3625Q78.06563 28.675 78.06563 27.425Q78.06563 26.534374 77.6125 25.89375Q77.15938 25.253124 76.425 25.05Q75.94063 24.925 74.64375 24.925L70.9875 24.925L70.9875 30.034374ZM88.97188 34.20625L90.78438 34.440624Q90.3625 36.01875 89.19063 36.909374Q88.03438 37.784374 86.22188 37.784374Q83.95625 37.784374 82.6125 36.39375Q81.28438 34.9875 81.28438 32.45625Q81.28438 29.83125 82.62813 28.39375Q83.97188 26.940624 86.12813 26.940624Q88.20625 26.940624 89.51875 28.3625Q90.84688 29.76875 90.84688 32.346874Q90.84688 32.503124 90.83125 32.815624L83.09688 32.815624Q83.19063 34.51875 84.06563 35.425Q84.94063 36.33125 86.2375 36.33125Q87.20625 36.33125 87.87813 35.83125Q88.56563 35.315624 88.97188 34.20625ZM83.19063 31.3625L88.9875 31.3625Q88.87813 30.065624 88.33125 29.409374Q87.4875 28.39375 86.14375 28.39375Q84.94063 28.39375 84.1125 29.20625Q83.28438 30.003124 83.19063 31.3625ZM92.84688 37.55L92.84688 27.175L94.425 27.175L94.425 28.753124Q95.03438 27.64375 95.55 27.3Q96.06563 26.940624 96.675 26.940624Q97.56563 26.940624 98.4875 27.503124L97.87813 29.14375Q97.2375 28.753124 96.59688 28.753124Q96.01875 28.753124 95.55 29.1125Q95.09688 29.45625 94.89375 30.065624Q94.6125 31.003124 94.6125 32.1125L94.6125 37.55L92.84688 37.55ZM106.64375 33.753124L108.3625 33.971874Q108.08125 35.76875 106.90938 36.784374Q105.75313 37.784374 104.05 37.784374Q101.925 37.784374 100.62813 36.39375Q99.33125 35.003124 99.33125 32.409374Q99.33125 30.721874 99.87813 29.471874Q100.44063 28.20625 101.58125 27.58125Q102.72188 26.940624 104.06563 26.940624Q105.75313 26.940624 106.81563 27.8Q107.89375 28.659374 108.20625 30.221874L106.4875 30.4875Q106.25313 29.440624 105.62813 28.925Q105.00313 28.39375 104.12813 28.39375Q102.8 28.39375 101.97188 29.346874Q101.14375 30.3 101.14375 32.346874Q101.14375 34.440624 101.94063 35.39375Q102.7375 36.33125 104.03438 36.33125Q105.06563 36.33125 105.75313 35.70625Q106.45625 35.065624 106.64375 33.753124ZM116.97188 34.20625L118.78438 34.440624Q118.3625 36.01875 117.19063 36.909374Q116.03438 37.784374 114.22188 37.784374Q111.95625 37.784374 110.6125 36.39375Q109.28438 34.9875 109.28438 32.45625Q109.28438 29.83125 110.62813 28.39375Q111.97188 26.940624 114.12813 26.940624Q116.20625 26.940624 117.51875 28.3625Q118.84688 29.76875 118.84688 32.346874Q118.84688 32.503124 118.83125 32.815624L111.09688 32.815624Q111.19063 34.51875 112.06563 35.425Q112.94063 36.33125 114.2375 36.33125Q115.20625 36.33125 115.87813 35.83125Q116.56563 35.315624 116.97188 34.20625ZM111.19063 31.3625L116.9875 31.3625Q116.87813 30.065624 116.33125 29.409374Q115.4875 28.39375 114.14375 28.39375Q112.94063 28.39375 112.1125 29.20625Q111.28438 30.003124 111.19063 31.3625ZM120.8625 37.55L120.8625 27.175L122.45625 27.175L122.45625 28.659374Q123.59688 26.940624 125.75313 26.940624Q126.69063 26.940624 127.47188 27.284374Q128.26875 27.6125 128.65938 28.159374Q129.05 28.70625 129.20625 29.45625Q129.3 29.95625 129.3 31.175L129.3 37.55L127.53438 37.55L127.53438 31.2375Q127.53438 30.159374 127.33125 29.628124Q127.12813 29.096874 126.59688 28.784374Q126.08125 28.471874 125.37813 28.471874Q124.25313 28.471874 123.44063 29.190624Q122.62813 29.89375 122.62813 31.878124L122.62813 37.55L120.8625 37.55ZM134.70625 35.971874L134.95625 37.534374Q134.22188 37.690624 133.62813 37.690624Q132.675 37.690624 132.14375 37.39375Q131.62813 37.08125 131.40938 36.596874Q131.19063 36.096874 131.19063 34.51875L131.19063 28.55L129.90938 28.55L129.90938 27.175L131.19063 27.175L131.19063 24.6125L132.94063 23.55L132.94063 27.175L134.70625 27.175L134.70625 28.55L132.94063 28.55L132.94063 34.6125Q132.94063 35.3625 133.03438 35.58125Q133.12813 35.784374 133.33125 35.925Q133.55 36.05 133.94063 36.05Q134.22188 36.05 134.70625 35.971874ZM143.64375 36.26875Q142.65938 37.096874 141.75313 37.440624Q140.84688 37.784374 139.81563 37.784374Q138.1125 37.784374 137.19063 36.95625Q136.26875 36.1125 136.26875 34.815624Q136.26875 34.05 136.6125 33.425Q136.97188 32.8 137.53438 32.425Q138.09688 32.034374 138.8 31.83125Q139.31563 31.70625 140.3625 31.565624Q142.4875 31.315624 143.4875 30.971874Q143.50313 30.6125 143.50313 30.503124Q143.50313 29.440624 143.00313 28.9875Q142.33125 28.39375 141.00313 28.39375Q139.75313 28.39375 139.15938 28.83125Q138.58125 29.26875 138.3 30.378124L136.58125 30.14375Q136.81563 29.034374 137.34688 28.3625Q137.87813 27.675 138.89375 27.315624Q139.90938 26.940624 141.25313 26.940624Q142.58125 26.940624 143.40938 27.253124Q144.2375 27.565624 144.62813 28.05Q145.01875 28.51875 145.175 29.2375Q145.26875 29.690624 145.26875 30.8625L145.26875 33.20625Q145.26875 35.659374 145.37813 36.315624Q145.4875 36.95625 145.83125 37.55L143.9875 37.55Q143.72188 37.003124 143.64375 36.26875ZM143.4875 32.346874Q142.53438 32.7375 140.6125 33.003124Q139.53438 33.159374 139.08125 33.3625Q138.64375 33.55 138.39375 33.925Q138.14375 34.3 138.14375 34.76875Q138.14375 35.471874 138.675 35.940624Q139.20625 36.409374 140.2375 36.409374Q141.25313 36.409374 142.03438 35.971874Q142.83125 35.51875 143.20625 34.753124Q143.4875 34.14375 143.4875 32.9875L143.4875 32.346874ZM147.55 38.409374L149.25313 38.659374Q149.3625 39.45625 149.84688 39.815624Q150.50313 40.3 151.64375 40.3Q152.8625 40.3 153.51875 39.815624Q154.19063 39.33125 154.425 38.45625Q154.56563 37.909374 154.55 36.190624Q153.39375 37.55 151.675 37.55Q149.53438 37.55 148.3625 36.003124Q147.19063 34.45625 147.19063 32.3Q147.19063 30.815624 147.72188 29.565624Q148.26875 28.315624 149.28438 27.628124Q150.31563 26.940624 151.69063 26.940624Q153.51875 26.940624 154.72188 28.425L154.72188 27.175L156.33125 27.175L156.33125 36.14375Q156.33125 38.565624 155.83125 39.565624Q155.34688 40.58125 154.26875 41.159374Q153.20625 41.753124 151.64375 41.753124Q149.8 41.753124 148.64375 40.925Q147.50313 40.096874 147.55 38.409374ZM149.00313 32.175Q149.00313 34.221874 149.81563 35.159374Q150.62813 36.096874 151.84688 36.096874Q153.05 36.096874 153.8625 35.159374Q154.69063 34.221874 154.69063 32.2375Q154.69063 30.33125 153.84688 29.3625Q153.00313 28.39375 151.81563 28.39375Q150.64375 28.39375 149.81563 29.346874Q149.00313 30.3 149.00313 32.175ZM165.97188 34.20625L167.78438 34.440624Q167.3625 36.01875 166.19063 36.909374Q165.03438 37.784374 163.22188 37.784374Q160.95625 37.784374 159.6125 36.39375Q158.28438 34.9875 158.28438 32.45625Q158.28438 29.83125 159.62813 28.39375Q160.97188 26.940624 163.12813 26.940624Q165.20625 26.940624 166.51875 28.3625Q167.84688 29.76875 167.84688 32.346874Q167.84688 32.503124 167.83125 32.815624L160.09688 32.815624Q160.19063 34.51875 161.06563 35.425Q161.94063 36.33125 163.2375 36.33125Q164.20625 36.33125 164.87813 35.83125Q165.56563 35.315624 165.97188 34.20625ZM160.19063 31.3625L165.9875 31.3625Q165.87813 30.065624 165.33125 29.409374Q164.4875 28.39375 163.14375 28.39375Q161.94063 28.39375 161.1125 29.20625Q160.28438 30.003124 160.19063 31.3625ZM178.59688 37.55L174.8 23.2375L176.7375 23.2375L178.90938 32.6125Q179.26875 34.096874 179.51875 35.55Q180.06563 33.253124 180.15938 32.89375L182.89375 23.2375L185.175 23.2375L187.22188 30.471874Q188.00313 33.175 188.34688 35.55Q188.6125 34.190624 189.05 32.425L191.3 23.2375L193.20625 23.2375L189.28438 37.55L187.45625 37.55L184.44063 26.64375Q184.05 25.26875 183.9875 24.95625Q183.75313 25.940624 183.56563 26.64375L180.53438 37.55L178.59688 37.55ZM194.22188 32.3625Q194.22188 29.4875 195.81563 28.096874Q197.15938 26.940624 199.08125 26.940624Q201.22188 26.940624 202.56563 28.346874Q203.925 29.753124 203.925 32.221874Q203.925 34.221874 203.33125 35.378124Q202.7375 36.51875 201.58125 37.159374Q200.44063 37.784374 199.08125 37.784374Q196.89375 37.784374 195.55 36.39375Q194.22188 34.9875 194.22188 32.3625ZM196.01875 32.3625Q196.01875 34.3625 196.87813 35.346874Q197.75313 36.33125 199.08125 36.33125Q200.39375 36.33125 201.25313 35.346874Q202.12813 34.346874 202.12813 32.3Q202.12813 30.378124 201.25313 29.39375Q200.37813 28.39375 199.08125 28.39375Q197.75313 28.39375 196.87813 29.39375Q196.01875 30.378124 196.01875 32.3625ZM205.84688 37.55L205.84688 27.175L207.425 27.175L207.425 28.753124Q208.03438 27.64375 208.55 27.3Q209.06563 26.940624 209.675 26.940624Q210.56563 26.940624 211.4875 27.503124L210.87813 29.14375Q210.2375 28.753124 209.59688 28.753124Q209.01875 28.753124 208.55 29.1125Q208.09688 29.45625 207.89375 30.065624Q207.6125 31.003124 207.6125 32.1125L207.6125 37.55L205.84688 37.55ZM212.87813 37.55L212.87813 23.2375L214.64375 23.2375L214.64375 31.39375L218.8 27.175L221.06563 27.175L217.1125 31.01875L221.47188 37.55L219.3 37.55L215.87813 32.253124L214.64375 33.440624L214.64375 37.55L212.87813 37.55ZM222.87813 25.253124L222.87813 23.2375L224.64375 23.2375L224.64375 25.253124L222.87813 25.253124ZM222.87813 37.55L222.87813 27.175L224.64375 27.175L224.64375 37.55L222.87813 37.55ZM226.8625 37.55L226.8625 27.175L228.45625 27.175L228.45625 28.659374Q229.59688 26.940624 231.75313 26.940624Q232.69063 26.940624 233.47188 27.284374Q234.26875 27.6125 234.65938 28.159374Q235.05 28.70625 235.20625 29.45625Q235.3 29.95625 235.3 31.175L235.3 37.55L233.53438 37.55L233.53438 31.2375Q233.53438 30.159374 233.33125 29.628124Q233.12813 29.096874 232.59688 28.784374Q232.08125 28.471874 231.37813 28.471874Q230.25313 28.471874 229.44063 29.190624Q228.62813 29.89375 228.62813 31.878124L228.62813 37.55L226.8625 37.55ZM236.55 38.409374L238.25313 38.659374Q238.3625 39.45625 238.84688 39.815624Q239.50313 40.3 240.64375 40.3Q241.8625 40.3 242.51875 39.815624Q243.19063 39.33125 243.425 38.45625Q243.56563 37.909374 243.55 36.190624Q242.39375 37.55 240.675 37.55Q238.53438 37.55 237.3625 36.003124Q236.19063 34.45625 236.19063 32.3Q236.19063 30.815624 236.72188 29.565624Q237.26875 28.315624 238.28438 27.628124Q239.31563 26.940624 240.69063 26.940624Q242.51875 26.940624 243.72188 28.425L243.72188 27.175L245.33125 27.175L245.33125 36.14375Q245.33125 38.565624 244.83125 39.565624Q244.34688 40.58125 243.26875 41.159374Q242.20625 41.753124 240.64375 41.753124Q238.8 41.753124 237.64375 40.925Q236.50313 40.096874 236.55 38.409374ZM238.00313 32.175Q238.00313 34.221874 238.81563 35.159374Q239.62813 36.096874 240.84688 36.096874Q242.05 36.096874 242.8625 35.159374Q243.69063 34.221874 243.69063 32.2375Q243.69063 30.33125 242.84688 29.3625Q242.00313 28.39375 240.81563 28.39375Q239.64375 28.39375 238.81563 29.346874Q238.00313 30.3 238.00313 32.175ZM253.87813 25.253124L253.87813 23.2375L255.64375 23.2375L255.64375 25.253124L253.87813 25.253124ZM253.87813 37.55L253.87813 27.175L255.64375 27.175L255.64375 37.55L253.87813 37.55ZM257.8625 37.55L257.8625 27.175L259.45624 27.175L259.45624 28.659374Q260.59686 26.940624 262.7531 26.940624Q263.6906 26.940624 264.47186 27.284374Q265.26874 27.6125 265.65936 28.159374Q266.05 28.70625 266.20624 29.45625Q266.3 29.95625 266.3 31.175L266.3 37.55L264.53436 37.55L264.53436 31.2375Q264.53436 30.159374 264.33124 29.628124Q264.1281 29.096874 263.59686 28.784374Q263.08124 28.471874 262.3781 28.471874Q261.2531 28.471874 260.4406 29.190624Q259.6281 29.89375 259.6281 31.878124L259.6281 37.55L257.8625 37.55ZM283.4875 23.2375L285.3781 23.2375L285.3781 31.503124Q285.3781 33.659374 284.89374 34.940624Q284.40936 36.20625 283.1281 37.003124Q281.8625 37.8 279.78436 37.8Q277.76874 37.8 276.4875 37.1125Q275.22186 36.409374 274.675 35.096874Q274.1281 33.784374 274.1281 31.503124L274.1281 23.2375L276.01874 23.2375L276.01874 31.4875Q276.01874 33.3625 276.3625 34.253124Q276.70624 35.128124 277.55 35.6125Q278.39374 36.08125 279.6281 36.08125Q281.70624 36.08125 282.59686 35.14375Q283.4875 34.190624 283.4875 31.4875L283.4875 23.2375ZM286.8625 37.55L286.8625 27.175L288.45624 27.175L288.45624 28.659374Q289.59686 26.940624 291.7531 26.940624Q292.6906 26.940624 293.47186 27.284374Q294.26874 27.6125 294.65936 28.159374Q295.05 28.70625 295.20624 29.45625Q295.3 29.95625 295.3 31.175L295.3 37.55L293.53436 37.55L293.53436 31.2375Q293.53436 30.159374 293.33124 29.628124Q293.1281 29.096874 292.59686 28.784374Q292.08124 28.471874 291.3781 28.471874Q290.2531 28.471874 289.4406 29.190624Q288.6281 29.89375 288.6281 31.878124L288.6281 37.55L286.8625 37.55ZM296.8781 25.253124L296.8781 23.2375L298.64374 23.2375L298.64374 25.253124L296.8781 25.253124ZM296.8781 37.55L296.8781 27.175L298.64374 27.175L298.64374 37.55L296.8781 37.55ZM304.70624 35.971874L304.95624 37.534374Q304.22186 37.690624 303.6281 37.690624Q302.675 37.690624 302.14374 37.39375Q301.6281 37.08125 301.40936 36.596874Q301.1906 36.096874 301.1906 34.51875L301.1906 28.55L299.90936 28.55L299.90936 27.175L301.1906 27.175L301.1906 24.6125L302.9406 23.55L302.9406 27.175L304.70624 27.175L304.70624 28.55L302.9406 28.55L302.9406 34.6125Q302.9406 35.3625 303.03436 35.58125Q303.1281 35.784374 303.33124 35.925Q303.55 36.05 303.9406 36.05Q304.22186 36.05 304.70624 35.971874ZM313.97186 34.20625L315.78436 34.440624Q315.3625 36.01875 314.1906 36.909374Q313.03436 37.784374 311.22186 37.784374Q308.95624 37.784374 307.6125 36.39375Q306.28436 34.9875 306.28436 32.45625Q306.28436 29.83125 307.6281 28.39375Q308.97186 26.940624 311.1281 26.940624Q313.20624 26.940624 314.51874 28.3625Q315.84686 29.76875 315.84686 32.346874Q315.84686 32.503124 315.83124 32.815624L308.09686 32.815624Q308.1906 34.51875 309.0656 35.425Q309.9406 36.33125 311.2375 36.33125Q312.20624 36.33125 312.8781 35.83125Q313.5656 35.315624 313.97186 34.20625ZM308.1906 31.3625L313.9875 31.3625Q313.8781 30.065624 313.33124 29.409374Q312.4875 28.39375 311.14374 28.39375Q309.9406 28.39375 309.1125 29.20625Q308.28436 30.003124 308.1906 31.3625ZM324.59686 37.55L324.59686 36.2375Q323.6125 37.784374 321.6906 37.784374Q320.45624 37.784374 319.40936 37.096874Q318.3781 36.409374 317.8 35.190624Q317.2375 33.971874 317.2375 32.378124Q317.2375 30.815624 317.7531 29.55Q318.26874 28.284374 319.3 27.6125Q320.34686 26.940624 321.6125 26.940624Q322.55 26.940624 323.28436 27.346874Q324.01874 27.7375 324.4875 28.3625L324.4875 23.2375L326.22186 23.2375L326.22186 37.55L324.59686 37.55ZM319.03436 32.378124Q319.03436 34.3625 319.8781 35.346874Q320.72186 36.33125 321.8625 36.33125Q323.01874 36.33125 323.8156 35.39375Q324.6281 34.45625 324.6281 32.51875Q324.6281 30.39375 323.8 29.39375Q322.9875 28.39375 321.78436 28.39375Q320.6125 28.39375 319.8156 29.3625Q319.03436 30.315624 319.03436 32.378124ZM334.45624 32.95625L336.2375 32.8Q336.3625 33.8625 336.8156 34.55Q337.28436 35.2375 338.2531 35.675Q339.2375 36.096874 340.47186 36.096874Q341.55 36.096874 342.3781 35.784374Q343.20624 35.45625 343.6125 34.89375Q344.01874 34.33125 344.01874 33.659374Q344.01874 32.9875 343.6281 32.4875Q343.2375 31.9875 342.34686 31.64375Q341.76874 31.409374 339.78436 30.940624Q337.8156 30.471874 337.03436 30.05Q336.0031 29.51875 335.5031 28.721874Q335.0031 27.925 335.0031 26.940624Q335.0031 25.846874 335.6125 24.909374Q336.22186 23.971874 337.40936 23.4875Q338.59686 22.9875 340.03436 22.9875Q341.6281 22.9875 342.84686 23.503124Q344.0656 24.01875 344.70624 25.01875Q345.3625 26.003124 345.40936 27.26875L343.59686 27.409374Q343.45624 26.05 342.6125 25.3625Q341.76874 24.659374 340.1125 24.659374Q338.39374 24.659374 337.59686 25.3Q336.8156 25.925 336.8156 26.8Q336.8156 27.58125 337.3781 28.08125Q337.925 28.58125 340.2375 29.096874Q342.55 29.6125 343.40936 30.003124Q344.65936 30.58125 345.2531 31.471874Q345.84686 32.346874 345.84686 33.503124Q345.84686 34.64375 345.1906 35.659374Q344.53436 36.675 343.3 37.2375Q342.08124 37.8 340.55 37.8Q338.6125 37.8 337.3 37.2375Q335.9875 36.659374 335.2375 35.51875Q334.4875 34.378124 334.45624 32.95625ZM351.70624 35.971874L351.95624 37.534374Q351.22186 37.690624 350.6281 37.690624Q349.675 37.690624 349.14374 37.39375Q348.6281 37.08125 348.40936 36.596874Q348.1906 36.096874 348.1906 34.51875L348.1906 28.55L346.90936 28.55L346.90936 27.175L348.1906 27.175L348.1906 24.6125L349.9406 23.55L349.9406 27.175L351.70624 27.175L351.70624 28.55L349.9406 28.55L349.9406 34.6125Q349.9406 35.3625 350.03436 35.58125Q350.1281 35.784374 350.33124 35.925Q350.55 36.05 350.9406 36.05Q351.22186 36.05 351.70624 35.971874ZM360.64374 36.26875Q359.65936 37.096874 358.7531 37.440624Q357.84686 37.784374 356.8156 37.784374Q355.1125 37.784374 354.1906 36.95625Q353.26874 36.1125 353.26874 34.815624Q353.26874 34.05 353.6125 33.425Q353.97186 32.8 354.53436 32.425Q355.09686 32.034374 355.8 31.83125Q356.3156 31.70625 357.3625 31.565624Q359.4875 31.315624 360.4875 30.971874Q360.5031 30.6125 360.5031 30.503124Q360.5031 29.440624 360.0031 28.9875Q359.33124 28.39375 358.0031 28.39375Q356.7531 28.39375 356.15936 28.83125Q355.58124 29.26875 355.3 30.378124L353.58124 30.14375Q353.8156 29.034374 354.34686 28.3625Q354.8781 27.675 355.89374 27.315624Q356.90936 26.940624 358.2531 26.940624Q359.58124 26.940624 360.40936 27.253124Q361.2375 27.565624 361.6281 28.05Q362.01874 28.51875 362.175 29.2375Q362.26874 29.690624 362.26874 30.8625L362.26874 33.20625Q362.26874 35.659374 362.3781 36.315624Q362.4875 36.95625 362.83124 37.55L360.9875 37.55Q360.72186 37.003124 360.64374 36.26875ZM360.4875 32.346874Q359.53436 32.7375 357.6125 33.003124Q356.53436 33.159374 356.08124 33.3625Q355.64374 33.55 355.39374 33.925Q355.14374 34.3 355.14374 34.76875Q355.14374 35.471874 355.675 35.940624Q356.20624 36.409374 357.2375 36.409374Q358.2531 36.409374 359.03436 35.971874Q359.83124 35.51875 360.20624 34.753124Q360.4875 34.14375 360.4875 32.9875L360.4875 32.346874ZM368.70624 35.971874L368.95624 37.534374Q368.22186 37.690624 367.6281 37.690624Q366.675 37.690624 366.14374 37.39375Q365.6281 37.08125 365.40936 36.596874Q365.1906 36.096874 365.1906 34.51875L365.1906 28.55L363.90936 28.55L363.90936 27.175L365.1906 27.175L365.1906 24.6125L366.9406 23.55L366.9406 27.175L368.70624 27.175L368.70624 28.55L366.9406 28.55L366.9406 34.6125Q366.9406 35.3625 367.03436 35.58125Q367.1281 35.784374 367.33124 35.925Q367.55 36.05 367.9406 36.05Q368.22186 36.05 368.70624 35.971874ZM377.97186 34.20625L379.78436 34.440624Q379.3625 36.01875 378.1906 36.909374Q377.03436 37.784374 375.22186 37.784374Q372.95624 37.784374 371.6125 36.39375Q370.28436 34.9875 370.28436 32.45625Q370.28436 29.83125 371.6281 28.39375Q372.97186 26.940624 375.1281 26.940624Q377.20624 26.940624 378.51874 28.3625Q379.84686 29.76875 379.84686 32.346874Q379.84686 32.503124 379.83124 32.815624L372.09686 32.815624Q372.1906 34.51875 373.0656 35.425Q373.9406 36.33125 375.2375 36.33125Q376.20624 36.33125 376.8781 35.83125Q377.5656 35.315624 377.97186 34.20625ZM372.1906 31.3625L377.9875 31.3625Q377.8781 30.065624 377.33124 29.409374Q376.4875 28.39375 375.14374 28.39375Q373.9406 28.39375 373.1125 29.20625Q372.28436 30.003124 372.1906 31.3625ZM381.15936 34.45625L382.90936 34.175Q383.05 35.221874 383.72186 35.784374Q384.39374 36.33125 385.59686 36.33125Q386.8 36.33125 387.3781 35.846874Q387.97186 35.346874 387.97186 34.690624Q387.97186 34.096874 387.45624 33.753124Q387.09686 33.51875 385.65936 33.159374Q383.72186 32.659374 382.97186 32.315624Q382.2375 31.95625 381.84686 31.33125Q381.45624 30.690624 381.45624 29.925Q381.45624 29.2375 381.76874 28.64375Q382.09686 28.05 382.64374 27.659374Q383.05 27.3625 383.7531 27.159374Q384.47186 26.940624 385.28436 26.940624Q386.5031 26.940624 387.425 27.3Q388.34686 27.64375 388.78436 28.253124Q389.22186 28.846874 389.39374 29.846874L387.675 30.08125Q387.55 29.284374 386.9875 28.846874Q386.425 28.39375 385.40936 28.39375Q384.1906 28.39375 383.675 28.8Q383.15936 29.190624 383.15936 29.721874Q383.15936 30.065624 383.3781 30.346874Q383.58124 30.628124 384.05 30.815624Q384.3156 30.909374 385.59686 31.253124Q387.47186 31.753124 388.20624 32.08125Q388.9406 32.39375 389.3625 33.003124Q389.78436 33.596874 389.78436 34.503124Q389.78436 35.378124 389.26874 36.159374Q388.7531 36.940624 387.78436 37.3625Q386.8156 37.784374 385.59686 37.784374Q383.58124 37.784374 382.51874 36.940624Q381.45624 36.096874 381.15936 34.45625Z" fill-rule="nonzero"/></svg>